<svg width="16" height="16" viewBox="0 0 16 16" fill="none" xmlns="http://www.w3.org/2000/svg">
<path d="M15.6211 13.6851L11.9426 10.0063C12.5676 9.01126 12.9303 7.8352 12.9303 6.57307C12.9303 3.00232 10.0356 0.108032 6.46503 0.108032C2.89442 0.108032 0 3.00232 0 6.57307C0 10.1439 2.89429 13.038 6.46503 13.038C7.83856 13.038 9.1108 12.6085 10.1577 11.8789L13.7924 15.5139C14.045 15.7662 14.3761 15.8918 14.7068 15.8918C15.0378 15.8918 15.3685 15.7662 15.6215 15.5139C16.1262 15.0086 16.1262 14.1902 15.6211 13.6851ZM6.46503 10.9434C4.05162 10.9434 2.09498 8.98688 2.09498 6.57333C2.09498 4.15979 4.05162 2.20315 6.46503 2.20315C8.87858 2.20315 10.8351 4.15979 10.8351 6.57333C10.8351 8.98688 8.87858 10.9434 6.46503 10.9434Z" fill="white"/>
</svg>
