<svg width="300" height="111" viewBox="0 0 300 111" fill="none" xmlns="http://www.w3.org/2000/svg">
<path d="M19.0464 86.2275H28.4775V54.1616H53.4476V86.2275H62.8787V22.3652H53.4476V45.988H28.4775V22.3652H19.0464V86.2275ZM82.99 44.012H74.3673V67.2754C74.3673 80.6587 80.4751 87.3054 93.0502 87.3054C99.8765 87.3054 104.817 85.3293 108.409 80.6587C111.553 76.6167 111.733 72.485 111.733 67.2754V44.012H103.11V67.0958C103.11 74.8203 99.5172 78.8622 92.9604 78.8622C86.493 78.8622 82.99 74.8203 82.99 67.0958V44.012ZM144.178 51.3772C151.902 51.3772 157.741 57.1257 157.741 65.1197C157.741 73.2036 152.262 78.7724 144.178 78.7724C136.274 78.7724 130.705 73.2934 130.705 65.5688C130.705 57.2155 136.453 51.3772 144.178 51.3772ZM130.525 48.6826V22.1856H121.992V57.8443C121.992 66.6467 122.89 73.2036 125.765 78.1437C129.088 83.8024 135.824 87.3054 144.178 87.3054C150.106 87.3054 155.765 85.0599 159.986 80.8383C164.208 76.6167 166.453 70.9581 166.453 65.0299C166.453 59.1018 164.208 53.5329 159.986 49.3114C155.854 45.1796 150.914 43.2036 145.076 43.2036C139.507 43.2036 134.747 44.9102 130.525 48.6826ZM174.647 86.2275H183.18V66.6467C193.778 66.8263 199.168 72.6646 199.168 84.2515C199.168 84.8802 199.078 85.509 199.078 86.2275H207.7C207.7 85.6886 207.7 85.2395 207.7 84.7006C207.7 71.9461 203.209 64.2215 194.048 61.2575L207.7 44.012H197.281L183.18 62.0658V22.1856H174.647V86.2275ZM223.948 44.012H215.325V67.2754C215.325 80.6587 221.433 87.3054 234.008 87.3054C240.834 87.3054 245.774 85.3293 249.367 80.6587C252.511 76.6167 252.691 72.485 252.691 67.2754V44.012H244.068V67.0958C244.068 74.8203 240.475 78.8622 233.918 78.8622C227.451 78.8622 223.948 74.8203 223.948 67.0958V44.012ZM260.705 51.467H265.017V67.2754C265.017 79.3113 271.573 86.0479 283.52 86.2275V77.6048C276.154 76.8862 273.46 73.0239 273.46 64.7604V51.467H282.981V44.012H273.46V34.0419H265.017V44.012H260.705V51.467Z" fill="#ED2590"/>
<path d="M19.0464 86.2276H16.3518V88.9222H19.0464V86.2276ZM28.4776 86.2276V88.9222H31.1722V86.2276H28.4776ZM28.4776 54.1617V51.4671H25.7829V54.1617H28.4776ZM53.4476 54.1617H56.1422V51.4671H53.4476V54.1617ZM53.4476 86.2276H50.753V88.9222H53.4476V86.2276ZM62.8787 86.2276V88.9222H65.5734V86.2276H62.8787ZM62.8787 22.3653H65.5734V19.6707H62.8787V22.3653ZM53.4476 22.3653V19.6707H50.753V22.3653H53.4476ZM53.4476 45.988V48.6826H56.1422V45.988H53.4476ZM28.4776 45.988H25.7829V48.6826H28.4776V45.988ZM28.4776 22.3653H31.1722V19.6707H28.4776V22.3653ZM19.0464 22.3653V19.6707H16.3518V22.3653H19.0464ZM19.0464 88.9222H28.4776V83.533H19.0464V88.9222ZM31.1722 86.2276V54.1617H25.7829V86.2276H31.1722ZM28.4776 56.8563H53.4476V51.4671H28.4776V56.8563ZM50.753 54.1617V86.2276H56.1422V54.1617H50.753ZM53.4476 88.9222H62.8787V83.533H53.4476V88.9222ZM65.5734 86.2276V22.3653H60.1841V86.2276H65.5734ZM62.8787 19.6707H53.4476V25.0599H62.8787V19.6707ZM50.753 22.3653V45.988H56.1422V22.3653H50.753ZM53.4476 43.2934H28.4776V48.6826H53.4476V43.2934ZM31.1722 45.988V22.3653H25.7829V45.988H31.1722ZM28.4776 19.6707H19.0464V25.0599H28.4776V19.6707ZM16.3518 22.3653V86.2276H21.741V22.3653H16.3518ZM82.9901 44.012H85.6847V41.3174H82.9901V44.012ZM74.3673 44.012V41.3174H71.6727V44.012H74.3673ZM108.41 80.6587L106.283 79.0044L106.278 79.01L106.274 79.0158L108.41 80.6587ZM111.733 44.012H114.427V41.3174H111.733V44.012ZM103.11 44.012V41.3174H100.415V44.012H103.11ZM82.9901 41.3174H74.3673V46.7066H82.9901V41.3174ZM71.6727 44.012V67.2755H77.0619V44.012H71.6727ZM71.6727 67.2755C71.6727 74.3238 73.2758 80.1153 77.0192 84.1435C80.7982 88.21 86.3072 90 93.0502 90V84.6108C87.2179 84.6108 83.3856 83.0775 80.967 80.4748C78.5127 77.8338 77.0619 73.6104 77.0619 67.2755H71.6727ZM93.0502 90C100.477 90 106.314 87.8026 110.545 82.3016L106.274 79.0158C103.319 82.8562 99.2757 84.6108 93.0502 84.6108V90ZM110.536 82.313C114.297 77.4774 114.427 72.4822 114.427 67.2755H109.038C109.038 72.4879 108.808 75.7561 106.283 79.0044L110.536 82.313ZM114.427 67.2755V44.012H109.038V67.2755H114.427ZM111.733 41.3174H103.11V46.7066H111.733V41.3174ZM100.415 44.012V67.0958H105.805V44.012H100.415ZM100.415 67.0958C100.415 70.5861 99.599 72.7974 98.4601 74.1079C97.376 75.3551 95.6658 76.1677 92.9604 76.1677V81.5569C96.811 81.5569 100.176 80.3485 102.527 77.6436C104.824 75.0019 105.805 71.3301 105.805 67.0958H100.415ZM92.9604 76.1677C90.3125 76.1677 88.6542 75.364 87.6008 74.1279C86.4849 72.8186 85.6847 70.6007 85.6847 67.0958H80.2955C80.2955 71.3155 81.2467 74.9808 83.4991 77.6237C85.8139 80.3396 89.1409 81.5569 92.9604 81.5569V76.1677ZM85.6847 67.0958V44.012H80.2955V67.0958H85.6847ZM130.525 48.6826H127.83V54.7044L132.321 50.6919L130.525 48.6826ZM130.525 22.1856H133.22V19.491H130.525V22.1856ZM121.992 22.1856V19.491H119.298V22.1856H121.992ZM125.765 78.1437L123.436 79.4988L123.442 79.5084L125.765 78.1437ZM159.986 80.8383L158.081 78.933L159.986 80.8383ZM159.986 49.3114L158.081 51.2167L159.986 49.3114ZM144.178 54.0719C150.402 54.0719 155.046 58.6022 155.046 65.1198H160.435C160.435 55.6493 153.402 48.6826 144.178 48.6826V54.0719ZM155.046 65.1198C155.046 68.5398 153.898 71.2426 152.077 73.0812C150.258 74.9172 147.584 76.0779 144.178 76.0779V81.4671C148.857 81.4671 152.964 79.8433 155.906 76.8739C158.845 73.9072 160.435 69.7836 160.435 65.1198H155.046ZM144.178 76.0779C140.863 76.0779 138.194 74.9383 136.364 73.144C134.539 71.3528 133.399 68.7628 133.399 65.5689H128.01C128.01 70.0995 129.656 74.1113 132.59 76.9908C135.522 79.8671 139.59 81.4671 144.178 81.4671V76.0779ZM133.399 65.5689C133.399 58.5981 138.045 54.0719 144.178 54.0719V48.6826C134.862 48.6826 128.01 55.8331 128.01 65.5689H133.399ZM133.22 48.6826V22.1856H127.83V48.6826H133.22ZM130.525 19.491H121.992V24.8802H130.525V19.491ZM119.298 22.1856V57.8443H124.687V22.1856H119.298ZM119.298 57.8443C119.298 66.7261 120.18 73.9037 123.436 79.4988L128.094 76.7886C125.601 72.5035 124.687 66.5673 124.687 57.8443H119.298ZM123.442 79.5084C127.355 86.1726 135.101 90 144.178 90V84.6108C136.549 84.6108 130.821 81.4322 128.088 76.7791L123.442 79.5084ZM144.178 90C150.793 90 157.145 87.4901 161.892 82.7437L158.081 78.933C154.384 82.6297 149.42 84.6108 144.178 84.6108V90ZM161.892 82.7437C166.638 77.9973 169.148 71.6447 169.148 65.03H163.759C163.759 70.2715 161.778 75.2362 158.081 78.933L161.892 82.7437ZM169.148 65.03C169.148 58.4036 166.63 52.1444 161.892 47.406L158.081 51.2167C161.786 54.9215 163.759 59.8 163.759 65.03H169.148ZM161.892 47.406C157.239 42.7526 151.606 40.509 145.076 40.509V45.8982C150.224 45.8982 154.471 47.6067 158.081 51.2167L161.892 47.406ZM145.076 40.509C138.877 40.509 133.469 42.4382 128.73 46.6734L132.321 50.6919C136.025 47.3821 140.137 45.8982 145.076 45.8982V40.509ZM174.647 86.2276H171.952V88.9222H174.647V86.2276ZM183.18 86.2276V88.9222H185.874V86.2276H183.18ZM183.18 66.6467L183.225 63.9525L180.485 63.906V66.6467H183.18ZM199.078 86.2276H196.383V88.9222H199.078V86.2276ZM207.701 86.2276V88.9222H210.395V86.2276H207.701ZM194.048 61.2575L191.935 59.5849L189.527 62.627L193.219 63.8212L194.048 61.2575ZM207.701 44.012L209.813 45.6845L213.271 41.3174H207.701V44.012ZM197.281 44.012V41.3174H195.967L195.158 42.3533L197.281 44.012ZM183.18 62.0659H180.485V69.8931L185.303 63.7246L183.18 62.0659ZM183.18 22.1856H185.874V19.491H183.18V22.1856ZM174.647 22.1856V19.491H171.952V22.1856H174.647ZM174.647 88.9222H183.18V83.533H174.647V88.9222ZM185.874 86.2276V66.6467H180.485V86.2276H185.874ZM183.134 69.341C187.956 69.4227 191.139 70.7739 193.157 72.9871C195.209 75.2374 196.473 78.8311 196.473 84.2515H201.862C201.862 78.0851 200.431 72.9662 197.139 69.3558C193.813 65.7082 189.002 64.0504 183.225 63.9525L183.134 69.341ZM196.473 84.2515C196.473 84.4552 196.459 84.6718 196.434 85.0205C196.413 85.3417 196.383 85.764 196.383 86.2276H201.772C201.772 85.9726 201.789 85.7212 201.811 85.3912C201.832 85.0887 201.862 84.6765 201.862 84.2515H196.473ZM199.078 88.9222H207.701V83.533H199.078V88.9222ZM210.395 86.2276C210.395 86.2265 210.395 86.2255 210.395 86.2244C210.395 86.2233 210.395 86.2223 210.395 86.2213C210.395 86.2202 210.395 86.2191 210.395 86.2181C210.395 86.2171 210.395 86.216 210.395 86.215C210.395 86.2139 210.395 86.2128 210.395 86.2118C210.395 86.2108 210.395 86.2097 210.395 86.2086C210.395 86.2076 210.395 86.2066 210.395 86.2055C210.395 86.2045 210.395 86.2034 210.395 86.2023C210.395 86.2013 210.395 86.2002 210.395 86.1993C210.395 86.1982 210.395 86.1971 210.395 86.1961C210.395 86.195 210.395 86.194 210.395 86.193C210.395 86.1919 210.395 86.1908 210.395 86.1898C210.395 86.1888 210.395 86.1877 210.395 86.1867C210.395 86.1856 210.395 86.1846 210.395 86.1835C210.395 86.1825 210.395 86.1815 210.395 86.1804C210.395 86.1794 210.395 86.1783 210.395 86.1773C210.395 86.1763 210.395 86.1752 210.395 86.1742C210.395 86.1731 210.395 86.1721 210.395 86.1711C210.395 86.17 210.395 86.169 210.395 86.1679C210.395 86.1668 210.395 86.1659 210.395 86.1648C210.395 86.1638 210.395 86.1627 210.395 86.1617C210.395 86.1606 210.395 86.1597 210.395 86.1586C210.395 86.1575 210.395 86.1565 210.395 86.1554C210.395 86.1544 210.395 86.1534 210.395 86.1524C210.395 86.1513 210.395 86.1503 210.395 86.1492C210.395 86.1482 210.395 86.1472 210.395 86.1461C210.395 86.1451 210.395 86.144 210.395 86.143C210.395 86.142 210.395 86.141 210.395 86.1399C210.395 86.1389 210.395 86.1378 210.395 86.1368C210.395 86.1358 210.395 86.1348 210.395 86.1337C210.395 86.1327 210.395 86.1316 210.395 86.1306C210.395 86.1296 210.395 86.1286 210.395 86.1275C210.395 86.1265 210.395 86.1254 210.395 86.1244C210.395 86.1234 210.395 86.1224 210.395 86.1213C210.395 86.1203 210.395 86.1192 210.395 86.1182C210.395 86.1172 210.395 86.1162 210.395 86.1152C210.395 86.1141 210.395 86.1131 210.395 86.1121C210.395 86.1111 210.395 86.11 210.395 86.109C210.395 86.1079 210.395 86.1069 210.395 86.1059C210.395 86.1049 210.395 86.1039 210.395 86.1028C210.395 86.1018 210.395 86.1007 210.395 86.0997C210.395 86.0987 210.395 86.0977 210.395 86.0967C210.395 86.0956 210.395 86.0946 210.395 86.0936C210.395 86.0926 210.395 86.0915 210.395 86.0905C210.395 86.0895 210.395 86.0884 210.395 86.0874C210.395 86.0864 210.395 86.0854 210.395 86.0844C210.395 86.0833 210.395 86.0823 210.395 86.0812C210.395 86.0803 210.395 86.0793 210.395 86.0782C210.395 86.0772 210.395 86.0761 210.395 86.0751C210.395 86.0741 210.395 86.0731 210.395 86.0721C210.395 86.0711 210.395 86.07 210.395 86.069C210.395 86.068 210.395 86.067 210.395 86.066C210.395 86.0649 210.395 86.0639 210.395 86.0629C210.395 86.0618 210.395 86.0609 210.395 86.0599C210.395 86.0588 210.395 86.0578 210.395 86.0568C210.395 86.0557 210.395 86.0547 210.395 86.0538C210.395 86.0527 210.395 86.0517 210.395 86.0507C210.395 86.0496 210.395 86.0486 210.395 86.0477C210.395 86.0466 210.395 86.0456 210.395 86.0446C210.395 86.0435 210.395 86.0425 210.395 86.0415C210.395 86.0405 210.395 86.0395 210.395 86.0385C210.395 86.0374 210.395 86.0364 210.395 86.0354C210.395 86.0344 210.395 86.0334 210.395 86.0324C210.395 86.0314 210.395 86.0303 210.395 86.0293C210.395 86.0283 210.395 86.0273 210.395 86.0263C210.395 86.0253 210.395 86.0243 210.395 86.0232C210.395 86.0222 210.395 86.0212 210.395 86.0202C210.395 86.0192 210.395 86.0182 210.395 86.0172C210.395 86.0161 210.395 86.0151 210.395 86.0141C210.395 86.0132 210.395 86.0121 210.395 86.0111C210.395 86.0101 210.395 86.0091 210.395 86.008C210.395 86.0071 210.395 86.0061 210.395 86.0051C210.395 86.004 210.395 86.003 210.395 86.002C210.395 86.001 210.395 86 210.395 85.999C210.395 85.998 210.395 85.997 210.395 85.9959C210.395 85.9949 210.395 85.9939 210.395 85.993C210.395 85.9919 210.395 85.9909 210.395 85.9899C210.395 85.9889 210.395 85.9879 210.395 85.9868C210.395 85.9859 210.395 85.9849 210.395 85.9839C210.395 85.9829 210.395 85.9818 210.395 85.9808C210.395 85.9798 210.395 85.9789 210.395 85.9779C210.395 85.9768 210.395 85.9758 210.395 85.9748C210.395 85.9738 210.395 85.9728 210.395 85.9717C210.395 85.9708 210.395 85.9698 210.395 85.9688C210.395 85.9678 210.395 85.9667 210.395 85.9657C210.395 85.9647 210.395 85.9638 210.395 85.9628C210.395 85.9618 210.395 85.9607 210.395 85.9597C210.395 85.9587 210.395 85.9577 210.395 85.9568C210.395 85.9558 210.395 85.9547 210.395 85.9537C210.395 85.9527 210.395 85.9517 210.395 85.9507C210.395 85.9498 210.395 85.9487 210.395 85.9477C210.395 85.9467 210.395 85.9457 210.395 85.9447C210.395 85.9437 210.395 85.9427 210.395 85.9417C210.395 85.9407 210.395 85.9397 210.395 85.9387C210.395 85.9377 210.395 85.9367 210.395 85.9357C210.395 85.9347 210.395 85.9337 210.395 85.9327C210.395 85.9317 210.395 85.9307 210.395 85.9297C210.395 85.9287 210.395 85.9277 210.395 85.9268C210.395 85.9257 210.395 85.9247 210.395 85.9237C210.395 85.9227 210.395 85.9217 210.395 85.9207C210.395 85.9198 210.395 85.9188 210.395 85.9178C210.395 85.9168 210.395 85.9157 210.395 85.9147C210.395 85.9137 210.395 85.9127 210.395 85.9118C210.395 85.9108 210.395 85.9098 210.395 85.9088C210.395 85.9078 210.395 85.9068 210.395 85.9058C210.395 85.9047 210.395 85.9038 210.395 85.9028C210.395 85.9018 210.395 85.9008 210.395 85.8998C210.395 85.8988 210.395 85.8978 210.395 85.8968C210.395 85.8959 210.395 85.8949 210.395 85.8939C210.395 85.8929 210.395 85.8919 210.395 85.8908C210.395 85.8898 210.395 85.8888 210.395 85.8879C210.395 85.8869 210.395 85.8859 210.395 85.8849C210.395 85.8839 210.395 85.8829 210.395 85.8819C210.395 85.8809 210.395 85.88 210.395 85.879C210.395 85.878 210.395 85.877 210.395 85.876C210.395 85.875 210.395 85.874 210.395 85.873C210.395 85.8721 210.395 85.8711 210.395 85.8701C210.395 85.869 210.395 85.868 210.395 85.867C210.395 85.866 210.395 85.865 210.395 85.8641C210.395 85.8631 210.395 85.8621 210.395 85.8611C210.395 85.8601 210.395 85.8591 210.395 85.8581C210.395 85.8571 210.395 85.8562 210.395 85.8552C210.395 85.8542 210.395 85.8532 210.395 85.8522C210.395 85.8512 210.395 85.8502 210.395 85.8492C210.395 85.8483 210.395 85.8473 210.395 85.8463C210.395 85.8453 210.395 85.8443 210.395 85.8433C210.395 85.8423 210.395 85.8413 210.395 85.8403C210.395 85.8394 210.395 85.8384 210.395 85.8374C210.395 85.8364 210.395 85.8354 210.395 85.8344C210.395 85.8334 210.395 85.8324 210.395 85.8314C210.395 85.8305 210.395 85.8295 210.395 85.8285C210.395 85.8275 210.395 85.8265 210.395 85.8256C210.395 85.8246 210.395 85.8236 210.395 85.8226C210.395 85.8217 210.395 85.8207 210.395 85.8197C210.395 85.8187 210.395 85.8177 210.395 85.8167C210.395 85.8157 210.395 85.8147 210.395 85.8138C210.395 85.8128 210.395 85.8118 210.395 85.8108C210.395 85.8098 210.395 85.8088 210.395 85.8078C210.395 85.8068 210.395 85.8059 210.395 85.8049C210.395 85.8039 210.395 85.8029 210.395 85.802C210.395 85.801 210.395 85.8 210.395 85.799C210.395 85.798 210.395 85.7971 210.395 85.7961C210.395 85.7951 210.395 85.7941 210.395 85.7931C210.395 85.7921 210.395 85.7911 210.395 85.7901C210.395 85.7892 210.395 85.7882 210.395 85.7873C210.395 85.7863 210.395 85.7853 210.395 85.7843C210.395 85.7833 210.395 85.7823 210.395 85.7813C210.395 85.7803 210.395 85.7794 210.395 85.7784C210.395 85.7774 210.395 85.7764 210.395 85.7754C210.395 85.7745 210.395 85.7735 210.395 85.7725C210.395 85.7715 210.395 85.7706 210.395 85.7696C210.395 85.7686 210.395 85.7676 210.395 85.7666C210.395 85.7656 210.395 85.7647 210.395 85.7637C210.395 85.7627 210.395 85.7618 210.395 85.7608C210.395 85.7598 210.395 85.7588 210.395 85.7578C210.395 85.7568 210.395 85.7558 210.395 85.7549C210.395 85.7539 210.395 85.7529 210.395 85.752C210.395 85.751 210.395 85.75 210.395 85.749C210.395 85.748 210.395 85.747 210.395 85.7461C210.395 85.7451 210.395 85.7441 210.395 85.7432C210.395 85.7422 210.395 85.7412 210.395 85.7402C210.395 85.7392 210.395 85.7383 210.395 85.7373C210.395 85.7363 210.395 85.7353 210.395 85.7344C210.395 85.7334 210.395 85.7324 210.395 85.7314C210.395 85.7305 210.395 85.7295 210.395 85.7285C210.395 85.7275 210.395 85.7265 210.395 85.7256C210.395 85.7246 210.395 85.7237 210.395 85.7227C210.395 85.7217 210.395 85.7207 210.395 85.7197C210.395 85.7187 210.395 85.7177 210.395 85.7168C210.395 85.7159 210.395 85.7149 210.395 85.7139C210.395 85.7129 210.395 85.7119 210.395 85.7109C210.395 85.71 210.395 85.709 210.395 85.708C210.395 85.7071 210.395 85.7061 210.395 85.7051C210.395 85.7041 210.395 85.7032 210.395 85.7022C210.395 85.7012 210.395 85.7002 210.395 85.6992C210.395 85.6982 210.395 85.6974 210.395 85.6964C210.395 85.6954 210.395 85.6944 210.395 85.6934C210.395 85.6924 210.395 85.6915 210.395 85.6905C210.395 85.6895 210.395 85.6886 210.395 85.6876C210.395 85.6866 210.395 85.6857 210.395 85.6847C210.395 85.6837 210.395 85.6827 210.395 85.6817C210.395 85.6807 210.395 85.6798 210.395 85.6788C210.395 85.6779 210.395 85.6769 210.395 85.6759C210.395 85.675 210.395 85.674 210.395 85.673C210.395 85.672 210.395 85.671 210.395 85.6701C210.395 85.6692 210.395 85.6682 210.395 85.6672C210.395 85.6662 210.395 85.6652 210.395 85.6643C210.395 85.6633 210.395 85.6623 210.395 85.6613C210.395 85.6603 210.395 85.6594 210.395 85.6585C210.395 85.6575 210.395 85.6565 210.395 85.6555C210.395 85.6545 210.395 85.6536 210.395 85.6526C210.395 85.6516 210.395 85.6506 210.395 85.6497C210.395 85.6488 210.395 85.6478 210.395 85.6468C210.395 85.6458 210.395 85.6448 210.395 85.6439C210.395 85.6429 210.395 85.6419 210.395 85.6409C210.395 85.64 210.395 85.6391 210.395 85.6381C210.395 85.6371 210.395 85.6361 210.395 85.6351C210.395 85.6342 210.395 85.6332 210.395 85.6322C210.395 85.6312 210.395 85.6303 210.395 85.6294C210.395 85.6284 210.395 85.6274 210.395 85.6264C210.395 85.6255 210.395 85.6245 210.395 85.6235C210.395 85.6225 210.395 85.6215 210.395 85.6206C210.395 85.6197 210.395 85.6187 210.395 85.6177C210.395 85.6167 210.395 85.6158 210.395 85.6148C210.395 85.6138 210.395 85.6128 210.395 85.6119C210.395 85.6109 210.395 85.61 210.395 85.609C210.395 85.608 210.395 85.6071 210.395 85.6061C210.395 85.6051 210.395 85.6041 210.395 85.6032C210.395 85.6022 210.395 85.6012 210.395 85.6003C210.395 85.5993 210.395 85.5984 210.395 85.5974C210.395 85.5964 210.395 85.5954 210.395 85.5945C210.395 85.5935 210.395 85.5925 210.395 85.5915C210.395 85.5906 210.395 85.5897 210.395 85.5887C210.395 85.5877 210.395 85.5867 210.395 85.5858C210.395 85.5848 210.395 85.5838 210.395 85.5828C210.395 85.5819 210.395 85.5809 210.395 85.5799C210.395 85.579 210.395 85.578 210.395 85.5771C210.395 85.5761 210.395 85.5751 210.395 85.5741C210.395 85.5732 210.395 85.5722 210.395 85.5713C210.395 85.5703 210.395 85.5694 210.395 85.5684C210.395 85.5674 210.395 85.5664 210.395 85.5655C210.395 85.5645 210.395 85.5635 210.395 85.5625C210.395 85.5616 210.395 85.5606 210.395 85.5597C210.395 85.5587 210.395 85.5577 210.395 85.5568C210.395 85.5558 210.395 85.5548 210.395 85.5538C210.395 85.5529 210.395 85.5519 210.395 85.5509C210.395 85.5499 210.395 85.5491 210.395 85.5481C210.395 85.5471 210.395 85.5461 210.395 85.5452C210.395 85.5442 210.395 85.5432 210.395 85.5422C210.395 85.5413 210.395 85.5403 210.395 85.5394C210.395 85.5384 210.395 85.5375 210.395 85.5365C210.395 85.5355 210.395 85.5345 210.395 85.5336C210.395 85.5326 210.395 85.5316 210.395 85.5306C210.395 85.5297 210.395 85.5288 210.395 85.5278C210.395 85.5268 210.395 85.5259 210.395 85.5249C210.395 85.5239 210.395 85.5229 210.395 85.522C210.395 85.521 210.395 85.52 210.395 85.5191C210.395 85.5182 210.395 85.5172 210.395 85.5162C210.395 85.5152 210.395 85.5143 210.395 85.5133C210.395 85.5123 210.395 85.5113 210.395 85.5104C210.395 85.5094 210.395 85.5085 210.395 85.5075C210.395 85.5066 210.395 85.5056 210.395 85.5046C210.395 85.5036 210.395 85.5027 210.395 85.5017C210.395 85.5007 210.395 85.4997 210.395 85.4988C210.395 85.4979 210.395 85.4969 210.395 85.496C210.395 85.495 210.395 85.494 210.395 85.493C210.395 85.4921 210.395 85.4911 210.395 85.4901C210.395 85.4892 210.395 85.4883 210.395 85.4873C210.395 85.4863 210.395 85.4853 210.395 85.4844C210.395 85.4834 210.395 85.4824 210.395 85.4814C210.395 85.4805 210.395 85.4795 210.395 85.4785C210.395 85.4776 210.395 85.4767 210.395 85.4757C210.395 85.4747 210.395 85.4737 210.395 85.4728C210.395 85.4718 210.395 85.4708 210.395 85.4698C210.395 85.4689 210.395 85.4679 210.395 85.467C210.395 85.466 210.395 85.4651 210.395 85.4641C210.395 85.4631 210.395 85.4622 210.395 85.4612C210.395 85.4602 210.395 85.4592 210.395 85.4583C210.395 85.4574 210.395 85.4564 210.395 85.4554C210.395 85.4545 210.395 85.4535 210.395 85.4525C210.395 85.4515 210.395 85.4506 210.395 85.4496C210.395 85.4486 210.395 85.4476 210.395 85.4467C210.395 85.4458 210.395 85.4448 210.395 85.4438C210.395 85.4429 210.395 85.4419 210.395 85.4409C210.395 85.4399 210.395 85.439 210.395 85.438C210.395 85.4371 210.395 85.4361 210.395 85.4352C210.395 85.4342 210.395 85.4332 210.395 85.4322C210.395 85.4313 210.395 85.4303 210.395 85.4293C210.395 85.4284 210.395 85.4274 210.395 85.4265C210.395 85.4255 210.395 85.4246 210.395 85.4236C210.395 85.4226 210.395 85.4216 210.395 85.4207C210.395 85.4197 210.395 85.4187 210.395 85.4177C210.395 85.4168 210.395 85.4159 210.395 85.4149C210.395 85.4139 210.395 85.413 210.395 85.412C210.395 85.411 210.395 85.41 210.395 85.4091C210.395 85.4081 210.395 85.4071 210.395 85.4062C210.395 85.4053 210.395 85.4043 210.395 85.4033C210.395 85.4023 210.395 85.4014 210.395 85.4004C210.395 85.3994 210.395 85.3984 210.395 85.3975C210.395 85.3965 210.395 85.3956 210.395 85.3946C210.395 85.3937 210.395 85.3927 210.395 85.3917C210.395 85.3907 210.395 85.3898 210.395 85.3888C210.395 85.3878 210.395 85.3868 210.395 85.3859C210.395 85.385 210.395 85.384 210.395 85.383C210.395 85.3821 210.395 85.3811 210.395 85.3801C210.395 85.3791 210.395 85.3782 210.395 85.3772C210.395 85.3762 210.395 85.3753 210.395 85.3744C210.395 85.3734 210.395 85.3724 210.395 85.3714C210.395 85.3705 210.395 85.3695 210.395 85.3685C210.395 85.3675 210.395 85.3665 210.395 85.3656C210.395 85.3646 210.395 85.3637 210.395 85.3627C210.395 85.3618 210.395 85.3608 210.395 85.3598C210.395 85.3588 210.395 85.3579 210.395 85.3569C210.395 85.3559 210.395 85.355 210.395 85.3541C210.395 85.3531 210.395 85.3521 210.395 85.3511C210.395 85.3502 210.395 85.3492 210.395 85.3482C210.395 85.3472 210.395 85.3462 210.395 85.3453C210.395 85.3444 210.395 85.3434 210.395 85.3424C210.395 85.3415 210.395 85.3405 210.395 85.3395C210.395 85.3385 210.395 85.3376 210.395 85.3366C210.395 85.3356 210.395 85.3346 210.395 85.3337C210.395 85.3328 210.395 85.3318 210.395 85.3308C210.395 85.3298 210.395 85.3289 210.395 85.3279C210.395 85.3269 210.395 85.326 210.395 85.325C210.395 85.3241 210.395 85.3231 210.395 85.3221C210.395 85.3211 210.395 85.3202 210.395 85.3192C210.395 85.3182 210.395 85.3172 210.395 85.3162C210.395 85.3153 210.395 85.3144 210.395 85.3134C210.395 85.3124 210.395 85.3115 210.395 85.3105C210.395 85.3095 210.395 85.3085 210.395 85.3075C210.395 85.3066 210.395 85.3056 210.395 85.3047C210.395 85.3037 210.395 85.3027 210.395 85.3018C210.395 85.3008 210.395 85.2998 210.395 85.2988C210.395 85.2979 210.395 85.2969 210.395 85.2959C210.395 85.295 210.395 85.294 210.395 85.2931C210.395 85.2921 210.395 85.2911 210.395 85.2901C210.395 85.2891 210.395 85.2882 210.395 85.2872C210.395 85.2862 210.395 85.2853 210.395 85.2843C210.395 85.2834 210.395 85.2824 210.395 85.2814C210.395 85.2804 210.395 85.2794 210.395 85.2785C210.395 85.2775 210.395 85.2765 210.395 85.2756C210.395 85.2746 210.395 85.2737 210.395 85.2727C210.395 85.2717 210.395 85.2707 210.395 85.2697C210.395 85.2688 210.395 85.2678 210.395 85.2668C210.395 85.2658 210.395 85.2649 210.395 85.2639C210.395 85.263 210.395 85.262 210.395 85.261C210.395 85.26 210.395 85.259 210.395 85.2581C210.395 85.2571 210.395 85.2561 210.395 85.2552C210.395 85.2542 210.395 85.2532 210.395 85.2523C210.395 85.2513 210.395 85.2503 210.395 85.2493C210.395 85.2483 210.395 85.2474 210.395 85.2465C210.395 85.2455 210.395 85.2445 210.395 85.2435C210.395 85.2425 210.395 85.2416 210.395 85.2406C210.395 85.2396 210.395 85.2386 210.395 85.2377C210.395 85.2367 210.395 85.2358 210.395 85.2348C210.395 85.2338 210.395 85.2328 210.395 85.2318C210.395 85.2308 210.395 85.2299 210.395 85.2289C210.395 85.228 210.395 85.227 210.395 85.226C210.395 85.225 210.395 85.2241 210.395 85.2231C210.395 85.2221 210.395 85.2211 210.395 85.2201C210.395 85.2192 210.395 85.2182 210.395 85.2173C210.395 85.2163 210.395 85.2153 210.395 85.2143C210.395 85.2133 210.395 85.2123 210.395 85.2113C210.395 85.2104 210.395 85.2094 210.395 85.2085C210.395 85.2075 210.395 85.2065 210.395 85.2055C210.395 85.2045 210.395 85.2036 210.395 85.2026C210.395 85.2016 210.395 85.2006 210.395 85.1997C210.395 85.1987 210.395 85.1977 210.395 85.1968C210.395 85.1958 210.395 85.1948 210.395 85.1938C210.395 85.1928 210.395 85.1918 210.395 85.1908C210.395 85.1899 210.395 85.189 210.395 85.188C210.395 85.187 210.395 85.186 210.395 85.185C210.395 85.184 210.395 85.183 210.395 85.1821C210.395 85.1812 210.395 85.1802 210.395 85.1792C210.395 85.1782 210.395 85.1772 210.395 85.1762C210.395 85.1752 210.395 85.1742 210.395 85.1733C210.395 85.1724 210.395 85.1714 210.395 85.1704C210.395 85.1694 210.395 85.1684 210.395 85.1674C210.395 85.1664 210.395 85.1654 210.395 85.1644C210.395 85.1635 210.395 85.1626 210.395 85.1616C210.395 85.1606 210.395 85.1596 210.395 85.1586C210.395 85.1576 210.395 85.1566 210.395 85.1556C210.395 85.1547 210.395 85.1537 210.395 85.1528C210.395 85.1518 210.395 85.1508 210.395 85.1498C210.395 85.1488 210.395 85.1478 210.395 85.1468C210.395 85.1459 210.395 85.1449 210.395 85.1439C210.395 85.1429 210.395 85.1419 210.395 85.1409C210.395 85.14 210.395 85.139 210.395 85.138C210.395 85.1371 210.395 85.1361 210.395 85.1351C210.395 85.1341 210.395 85.1331 210.395 85.1321C210.395 85.1311 210.395 85.1301 210.395 85.1292C210.395 85.1282 210.395 85.1272 210.395 85.1262C210.395 85.1253 210.395 85.1243 210.395 85.1233C210.395 85.1223 210.395 85.1213 210.395 85.1204C210.395 85.1194 210.395 85.1184 210.395 85.1174C210.395 85.1164 210.395 85.1154 210.395 85.1144C210.395 85.1134 210.395 85.1124 210.395 85.1115C210.395 85.1105 210.395 85.1095 210.395 85.1085C210.395 85.1075 210.395 85.1065 210.395 85.1055C210.395 85.1045 210.395 85.1035 210.395 85.1026C210.395 85.1017 210.395 85.1007 210.395 85.0997C210.395 85.0987 210.395 85.0977 210.395 85.0967C210.395 85.0957 210.395 85.0947 210.395 85.0938C210.395 85.0928 210.395 85.0918 210.395 85.0908C210.395 85.0898 210.395 85.0888 210.395 85.0878C210.395 85.0868 210.395 85.0859 210.395 85.0849C210.395 85.0839 210.395 85.0829 210.395 85.0819C210.395 85.0809 210.395 85.0799 210.395 85.0789C210.395 85.0779 210.395 85.077 210.395 85.076C210.395 85.075 210.395 85.074 210.395 85.073C210.395 85.072 210.395 85.071 210.395 85.0701C210.395 85.0691 210.395 85.0681 210.395 85.0671C210.395 85.0661 210.395 85.0651 210.395 85.0641C210.395 85.0631 210.395 85.0621 210.395 85.0612C210.395 85.0602 210.395 85.0592 210.395 85.0581C210.395 85.0571 210.395 85.0561 210.395 85.0551C210.395 85.0542 210.395 85.0532 210.395 85.0522C210.395 85.0512 210.395 85.0502 210.395 85.0492C210.395 85.0482 210.395 85.0472 210.395 85.0462C210.395 85.0453 210.395 85.0443 210.395 85.0433C210.395 85.0423 210.395 85.0413 210.395 85.0403C210.395 85.0393 210.395 85.0383 210.395 85.0374C210.395 85.0363 210.395 85.0353 210.395 85.0343C210.395 85.0333 210.395 85.0323 210.395 85.0313C210.395 85.0303 210.395 85.0294 210.395 85.0284C210.395 85.0274 210.395 85.0264 210.395 85.0254C210.395 85.0244 210.395 85.0234 210.395 85.0224C210.395 85.0214 210.395 85.0204 210.395 85.0194C210.395 85.0184 210.395 85.0174 210.395 85.0164C210.395 85.0154 210.395 85.0145 210.395 85.0135C210.395 85.0125 210.395 85.0114 210.395 85.0104C210.395 85.0094 210.395 85.0084 210.395 85.0074C210.395 85.0065 210.395 85.0055 210.395 85.0045C210.395 85.0035 210.395 85.0025 210.395 85.0014C210.395 85.0004 210.395 84.9994 210.395 84.9985C210.395 84.9975 210.395 84.9965 210.395 84.9955C210.395 84.9945 210.395 84.9934 210.395 84.9924C210.395 84.9914 210.395 84.9905 210.395 84.9895C210.395 84.9885 210.395 84.9875 210.395 84.9865C210.395 84.9854 210.395 84.9845 210.395 84.9835C210.395 84.9825 210.395 84.9815 210.395 84.9805C210.395 84.9795 210.395 84.9784 210.395 84.9774C210.395 84.9765 210.395 84.9755 210.395 84.9745C210.395 84.9735 210.395 84.9724 210.395 84.9714C210.395 84.9704 210.395 84.9694 210.395 84.9685C210.395 84.9675 210.395 84.9664 210.395 84.9654C210.395 84.9644 210.395 84.9634 210.395 84.9624C210.395 84.9614 210.395 84.9604 210.395 84.9594C210.395 84.9584 210.395 84.9574 210.395 84.9564C210.395 84.9553 210.395 84.9544 210.395 84.9534C210.395 84.9524 210.395 84.9514 210.395 84.9503C210.395 84.9493 210.395 84.9483 210.395 84.9473C210.395 84.9464 210.395 84.9453 210.395 84.9443C210.395 84.9433 210.395 84.9423 210.395 84.9413C210.395 84.9403 210.395 84.9393 210.395 84.9383C210.395 84.9373 210.395 84.9363 210.395 84.9352C210.395 84.9342 210.395 84.9332 210.395 84.9323C210.395 84.9312 210.395 84.9302 210.395 84.9292C210.395 84.9282 210.395 84.9271 210.395 84.9262C210.395 84.9252 210.395 84.9242 210.395 84.9231C210.395 84.9221 210.395 84.9211 210.395 84.9201C210.395 84.9191 210.395 84.9181 210.395 84.9171C210.395 84.9161 210.395 84.915 210.395 84.914C210.395 84.913 210.395 84.912 210.395 84.911C210.395 84.91 210.395 84.909 210.395 84.908C210.395 84.9069 210.395 84.9059 210.395 84.905C210.395 84.9039 210.395 84.9029 210.395 84.9019C210.395 84.9009 210.395 84.8998 210.395 84.8988C210.395 84.8979 210.395 84.8968 210.395 84.8958C210.395 84.8948 210.395 84.8938 210.395 84.8927C210.395 84.8918 210.395 84.8908 210.395 84.8897C210.395 84.8887 210.395 84.8877 210.395 84.8866C210.395 84.8856 210.395 84.8847 210.395 84.8836C210.395 84.8826 210.395 84.8816 210.395 84.8805C210.395 84.8795 210.395 84.8786 210.395 84.8775C210.395 84.8765 210.395 84.8755 210.395 84.8744C210.395 84.8734 210.395 84.8724 210.395 84.8714C210.395 84.8704 210.395 84.8694 210.395 84.8683C210.395 84.8673 210.395 84.8663 210.395 84.8652C210.395 84.8643 210.395 84.8633 210.395 84.8622C210.395 84.8612 210.395 84.8602 210.395 84.8592C210.395 84.8582 210.395 84.8571 210.395 84.8561C210.395 84.8551 210.395 84.854 210.395 84.853C210.395 84.8521 210.395 84.851 210.395 84.85C210.395 84.8489 210.395 84.8479 210.395 84.8469C210.395 84.8458 210.395 84.8449 210.395 84.8438C210.395 84.8428 210.395 84.8418 210.395 84.8407C210.395 84.8397 210.395 84.8387 210.395 84.8377C210.395 84.8367 210.395 84.8356 210.395 84.8346C210.395 84.8336 210.395 84.8326 210.395 84.8315C210.395 84.8305 210.395 84.8295 210.395 84.8284C210.395 84.8274 210.395 84.8264 210.395 84.8254C210.395 84.8243 210.395 84.8233 210.395 84.8223C210.395 84.8212 210.395 84.8203 210.395 84.8192C210.395 84.8182 210.395 84.8171 210.395 84.8161C210.395 84.815 210.395 84.8141 210.395 84.813C210.395 84.812 210.395 84.811 210.395 84.8099C210.395 84.8089 210.395 84.8079 210.395 84.8069C210.395 84.8058 210.395 84.8048 210.395 84.8037C210.395 84.8027 210.395 84.8017 210.395 84.8007C210.395 84.7996 210.395 84.7986 210.395 84.7975C210.395 84.7965 210.395 84.7955 210.395 84.7945C210.395 84.7934 210.395 84.7924 210.395 84.7913C210.395 84.7904 210.395 84.7893 210.395 84.7883C210.395 84.7872 210.395 84.7862 210.395 84.7851C210.395 84.7841 210.395 84.7831 210.395 84.7821C210.395 84.781 210.395 84.78 210.395 84.7789C210.395 84.7779 210.395 84.7769 210.395 84.7758C210.395 84.7748 210.395 84.7737 210.395 84.7727C210.395 84.7717 210.395 84.7707 210.395 84.7696C210.395 84.7685 210.395 84.7675 210.395 84.7664C210.395 84.7655 210.395 84.7644 210.395 84.7634C210.395 84.7623 210.395 84.7613 210.395 84.7603C210.395 84.7592 210.395 84.7582 210.395 84.7571C210.395 84.7561 210.395 84.755 210.395 84.754C210.395 84.753 210.395 84.7519 210.395 84.7509C210.395 84.7498 210.395 84.7488 210.395 84.7478C210.395 84.7467 210.395 84.7457 210.395 84.7446C210.395 84.7436 210.395 84.7426 210.395 84.7415C210.395 84.7405 210.395 84.7394 210.395 84.7383C210.395 84.7374 210.395 84.7363 210.395 84.7352C210.395 84.7342 210.395 84.7331 210.395 84.732C210.395 84.7311 210.395 84.73 210.395 84.7289C210.395 84.7279 210.395 84.7268 210.395 84.7259C210.395 84.7248 210.395 84.7237 210.395 84.7227C210.395 84.7216 210.395 84.7206 210.395 84.7196C210.395 84.7185 210.395 84.7174 210.395 84.7163C210.395 84.7153 210.395 84.7143 210.395 84.7132C210.395 84.7122 210.395 84.7111 210.395 84.7101C210.395 84.7091 210.395 84.708 210.395 84.7069C210.395 84.7059 210.395 84.7048 210.395 84.7038C210.395 84.7027 210.395 84.7017 210.395 84.7006H205.006C205.006 84.7017 205.006 84.7027 205.006 84.7038C205.006 84.7048 205.006 84.7059 205.006 84.7069C205.006 84.708 205.006 84.7091 205.006 84.7101C205.006 84.7111 205.006 84.7122 205.006 84.7132C205.006 84.7143 205.006 84.7153 205.006 84.7163C205.006 84.7174 205.006 84.7185 205.006 84.7196C205.006 84.7206 205.006 84.7216 205.006 84.7227C205.006 84.7237 205.006 84.7248 205.006 84.7259C205.006 84.7268 205.006 84.7279 205.006 84.7289C205.006 84.73 205.006 84.7311 205.006 84.732C205.006 84.7331 205.006 84.7342 205.006 84.7352C205.006 84.7363 205.006 84.7374 205.006 84.7383C205.006 84.7394 205.006 84.7405 205.006 84.7415C205.006 84.7426 205.006 84.7436 205.006 84.7446C205.006 84.7457 205.006 84.7467 205.006 84.7478C205.006 84.7488 205.006 84.7498 205.006 84.7509C205.006 84.7519 205.006 84.753 205.006 84.754C205.006 84.755 205.006 84.7561 205.006 84.7571C205.006 84.7582 205.006 84.7592 205.006 84.7603C205.006 84.7613 205.006 84.7623 205.006 84.7634C205.006 84.7644 205.006 84.7655 205.006 84.7664C205.006 84.7675 205.006 84.7685 205.006 84.7696C205.006 84.7707 205.006 84.7717 205.006 84.7727C205.006 84.7737 205.006 84.7748 205.006 84.7758C205.006 84.7769 205.006 84.7779 205.006 84.7789C205.006 84.78 205.006 84.781 205.006 84.7821C205.006 84.7831 205.006 84.7841 205.006 84.7851C205.006 84.7862 205.006 84.7872 205.006 84.7883C205.006 84.7893 205.006 84.7904 205.006 84.7913C205.006 84.7924 205.006 84.7934 205.006 84.7945C205.006 84.7955 205.006 84.7965 205.006 84.7975C205.006 84.7986 205.006 84.7996 205.006 84.8007C205.006 84.8017 205.006 84.8027 205.006 84.8037C205.006 84.8048 205.006 84.8058 205.006 84.8069C205.006 84.8079 205.006 84.8089 205.006 84.8099C205.006 84.811 205.006 84.812 205.006 84.813C205.006 84.8141 205.006 84.815 205.006 84.8161C205.006 84.8171 205.006 84.8182 205.006 84.8192C205.006 84.8203 205.006 84.8212 205.006 84.8223C205.006 84.8233 205.006 84.8243 205.006 84.8254C205.006 84.8264 205.006 84.8274 205.006 84.8284C205.006 84.8295 205.006 84.8305 205.006 84.8315C205.006 84.8326 205.006 84.8336 205.006 84.8346C205.006 84.8356 205.006 84.8367 205.006 84.8377C205.006 84.8387 205.006 84.8397 205.006 84.8407C205.006 84.8418 205.006 84.8428 205.006 84.8438C205.006 84.8449 205.006 84.8458 205.006 84.8469C205.006 84.8479 205.006 84.8489 205.006 84.85C205.006 84.851 205.006 84.8521 205.006 84.853C205.006 84.854 205.006 84.8551 205.006 84.8561C205.006 84.8571 205.006 84.8582 205.006 84.8592C205.006 84.8602 205.006 84.8612 205.006 84.8622C205.006 84.8633 205.006 84.8643 205.006 84.8652C205.006 84.8663 205.006 84.8673 205.006 84.8683C205.006 84.8694 205.006 84.8704 205.006 84.8714C205.006 84.8724 205.006 84.8734 205.006 84.8744C205.006 84.8755 205.006 84.8765 205.006 84.8775C205.006 84.8786 205.006 84.8795 205.006 84.8805C205.006 84.8816 205.006 84.8826 205.006 84.8836C205.006 84.8847 205.006 84.8856 205.006 84.8866C205.006 84.8877 205.006 84.8887 205.006 84.8897C205.006 84.8908 205.006 84.8918 205.006 84.8927C205.006 84.8938 205.006 84.8948 205.006 84.8958C205.006 84.8968 205.006 84.8979 205.006 84.8988C205.006 84.8998 205.006 84.9009 205.006 84.9019C205.006 84.9029 205.006 84.9039 205.006 84.905C205.006 84.9059 205.006 84.9069 205.006 84.908C205.006 84.909 205.006 84.91 205.006 84.911C205.006 84.912 205.006 84.913 205.006 84.914C205.006 84.915 205.006 84.9161 205.006 84.9171C205.006 84.9181 205.006 84.9191 205.006 84.9201C205.006 84.9211 205.006 84.9221 205.006 84.9231C205.006 84.9242 205.006 84.9252 205.006 84.9262C205.006 84.9271 205.006 84.9282 205.006 84.9292C205.006 84.9302 205.006 84.9312 205.006 84.9323C205.006 84.9332 205.006 84.9342 205.006 84.9352C205.006 84.9363 205.006 84.9373 205.006 84.9383C205.006 84.9393 205.006 84.9403 205.006 84.9413C205.006 84.9423 205.006 84.9433 205.006 84.9443C205.006 84.9453 205.006 84.9464 205.006 84.9473C205.006 84.9483 205.006 84.9493 205.006 84.9503C205.006 84.9514 205.006 84.9524 205.006 84.9534C205.006 84.9544 205.006 84.9553 205.006 84.9564C205.006 84.9574 205.006 84.9584 205.006 84.9594C205.006 84.9604 205.006 84.9614 205.006 84.9624C205.006 84.9634 205.006 84.9644 205.006 84.9654C205.006 84.9664 205.006 84.9675 205.006 84.9685C205.006 84.9694 205.006 84.9704 205.006 84.9714C205.006 84.9724 205.006 84.9735 205.006 84.9745C205.006 84.9755 205.006 84.9765 205.006 84.9774C205.006 84.9784 205.006 84.9795 205.006 84.9805C205.006 84.9815 205.006 84.9825 205.006 84.9835C205.006 84.9845 205.006 84.9854 205.006 84.9865C205.006 84.9875 205.006 84.9885 205.006 84.9895C205.006 84.9905 205.006 84.9914 205.006 84.9924C205.006 84.9934 205.006 84.9945 205.006 84.9955C205.006 84.9965 205.006 84.9975 205.006 84.9985C205.006 84.9994 205.006 85.0004 205.006 85.0014C205.006 85.0025 205.006 85.0035 205.006 85.0045C205.006 85.0055 205.006 85.0065 205.006 85.0074C205.006 85.0084 205.006 85.0094 205.006 85.0104C205.006 85.0114 205.006 85.0125 205.006 85.0135C205.006 85.0145 205.006 85.0154 205.006 85.0164C205.006 85.0174 205.006 85.0184 205.006 85.0194C205.006 85.0204 205.006 85.0214 205.006 85.0224C205.006 85.0234 205.006 85.0244 205.006 85.0254C205.006 85.0264 205.006 85.0274 205.006 85.0284C205.006 85.0294 205.006 85.0303 205.006 85.0313C205.006 85.0323 205.006 85.0333 205.006 85.0343C205.006 85.0353 205.006 85.0363 205.006 85.0374C205.006 85.0383 205.006 85.0393 205.006 85.0403C205.006 85.0413 205.006 85.0423 205.006 85.0433C205.006 85.0443 205.006 85.0453 205.006 85.0462C205.006 85.0472 205.006 85.0482 205.006 85.0492C205.006 85.0502 205.006 85.0512 205.006 85.0522C205.006 85.0532 205.006 85.0542 205.006 85.0551C205.006 85.0561 205.006 85.0571 205.006 85.0581C205.006 85.0592 205.006 85.0602 205.006 85.0612C205.006 85.0621 205.006 85.0631 205.006 85.0641C205.006 85.0651 205.006 85.0661 205.006 85.0671C205.006 85.0681 205.006 85.0691 205.006 85.0701C205.006 85.071 205.006 85.072 205.006 85.073C205.006 85.074 205.006 85.075 205.006 85.076C205.006 85.077 205.006 85.0779 205.006 85.0789C205.006 85.0799 205.006 85.0809 205.006 85.0819C205.006 85.0829 205.006 85.0839 205.006 85.0849C205.006 85.0859 205.006 85.0868 205.006 85.0878C205.006 85.0888 205.006 85.0898 205.006 85.0908C205.006 85.0918 205.006 85.0928 205.006 85.0938C205.006 85.0947 205.006 85.0957 205.006 85.0967C205.006 85.0977 205.006 85.0987 205.006 85.0997C205.006 85.1007 205.006 85.1017 205.006 85.1026C205.006 85.1035 205.006 85.1045 205.006 85.1055C205.006 85.1065 205.006 85.1075 205.006 85.1085C205.006 85.1095 205.006 85.1105 205.006 85.1115C205.006 85.1124 205.006 85.1134 205.006 85.1144C205.006 85.1154 205.006 85.1164 205.006 85.1174C205.006 85.1184 205.006 85.1194 205.006 85.1204C205.006 85.1213 205.006 85.1223 205.006 85.1233C205.006 85.1243 205.006 85.1253 205.006 85.1262C205.006 85.1272 205.006 85.1282 205.006 85.1292C205.006 85.1301 205.006 85.1311 205.006 85.1321C205.006 85.1331 205.006 85.1341 205.006 85.1351C205.006 85.1361 205.006 85.1371 205.006 85.138C205.006 85.139 205.006 85.14 205.006 85.1409C205.006 85.1419 205.006 85.1429 205.006 85.1439C205.006 85.1449 205.006 85.1459 205.006 85.1468C205.006 85.1478 205.006 85.1488 205.006 85.1498C205.006 85.1508 205.006 85.1518 205.006 85.1528C205.006 85.1537 205.006 85.1547 205.006 85.1556C205.006 85.1566 205.006 85.1576 205.006 85.1586C205.006 85.1596 205.006 85.1606 205.006 85.1616C205.006 85.1626 205.006 85.1635 205.006 85.1644C205.006 85.1654 205.006 85.1664 205.006 85.1674C205.006 85.1684 205.006 85.1694 205.006 85.1704C205.006 85.1714 205.006 85.1724 205.006 85.1733C205.006 85.1742 205.006 85.1752 205.006 85.1762C205.006 85.1772 205.006 85.1782 205.006 85.1792C205.006 85.1802 205.006 85.1812 205.006 85.1821C205.006 85.183 205.006 85.184 205.006 85.185C205.006 85.186 205.006 85.187 205.006 85.188C205.006 85.189 205.006 85.1899 205.006 85.1908C205.006 85.1918 205.006 85.1928 205.006 85.1938C205.006 85.1948 205.006 85.1958 205.006 85.1968C205.006 85.1977 205.006 85.1987 205.006 85.1997C205.006 85.2006 205.006 85.2016 205.006 85.2026C205.006 85.2036 205.006 85.2045 205.006 85.2055C205.006 85.2065 205.006 85.2075 205.006 85.2085C205.006 85.2094 205.006 85.2104 205.006 85.2113C205.006 85.2123 205.006 85.2133 205.006 85.2143C205.006 85.2153 205.006 85.2163 205.006 85.2173C205.006 85.2182 205.006 85.2192 205.006 85.2201C205.006 85.2211 205.006 85.2221 205.006 85.2231C205.006 85.2241 205.006 85.225 205.006 85.226C205.006 85.227 205.006 85.228 205.006 85.2289C205.006 85.2299 205.006 85.2308 205.006 85.2318C205.006 85.2328 205.006 85.2338 205.006 85.2348C205.006 85.2358 205.006 85.2367 205.006 85.2377C205.006 85.2386 205.006 85.2396 205.006 85.2406C205.006 85.2416 205.006 85.2425 205.006 85.2435C205.006 85.2445 205.006 85.2455 205.006 85.2465C205.006 85.2474 205.006 85.2483 205.006 85.2493C205.006 85.2503 205.006 85.2513 205.006 85.2523C205.006 85.2532 205.006 85.2542 205.006 85.2552C205.006 85.2561 205.006 85.2571 205.006 85.2581C205.006 85.259 205.006 85.26 205.006 85.261C205.006 85.262 205.006 85.263 205.006 85.2639C205.006 85.2649 205.006 85.2658 205.006 85.2668C205.006 85.2678 205.006 85.2688 205.006 85.2697C205.006 85.2707 205.006 85.2717 205.006 85.2727C205.006 85.2737 205.006 85.2746 205.006 85.2756C205.006 85.2765 205.006 85.2775 205.006 85.2785C205.006 85.2794 205.006 85.2804 205.006 85.2814C205.006 85.2824 205.006 85.2834 205.006 85.2843C205.006 85.2853 205.006 85.2862 205.006 85.2872C205.006 85.2882 205.006 85.2891 205.006 85.2901C205.006 85.2911 205.006 85.2921 205.006 85.2931C205.006 85.294 205.006 85.295 205.006 85.2959C205.006 85.2969 205.006 85.2979 205.006 85.2988C205.006 85.2998 205.006 85.3008 205.006 85.3018C205.006 85.3027 205.006 85.3037 205.006 85.3047C205.006 85.3056 205.006 85.3066 205.006 85.3075C205.006 85.3085 205.006 85.3095 205.006 85.3105C205.006 85.3115 205.006 85.3124 205.006 85.3134C205.006 85.3144 205.006 85.3153 205.006 85.3162C205.006 85.3172 205.006 85.3182 205.006 85.3192C205.006 85.3202 205.006 85.3211 205.006 85.3221C205.006 85.3231 205.006 85.3241 205.006 85.325C205.006 85.326 205.006 85.3269 205.006 85.3279C205.006 85.3289 205.006 85.3298 205.006 85.3308C205.006 85.3318 205.006 85.3328 205.006 85.3337C205.006 85.3346 205.006 85.3356 205.006 85.3366C205.006 85.3376 205.006 85.3385 205.006 85.3395C205.006 85.3405 205.006 85.3415 205.006 85.3424C205.006 85.3434 205.006 85.3444 205.006 85.3453C205.006 85.3462 205.006 85.3472 205.006 85.3482C205.006 85.3492 205.006 85.3502 205.006 85.3511C205.006 85.3521 205.006 85.3531 205.006 85.3541C205.006 85.355 205.006 85.3559 205.006 85.3569C205.006 85.3579 205.006 85.3588 205.006 85.3598C205.006 85.3608 205.006 85.3618 205.006 85.3627C205.006 85.3637 205.006 85.3646 205.006 85.3656C205.006 85.3665 205.006 85.3675 205.006 85.3685C205.006 85.3695 205.006 85.3705 205.006 85.3714C205.006 85.3724 205.006 85.3734 205.006 85.3744C205.006 85.3753 205.006 85.3762 205.006 85.3772C205.006 85.3782 205.006 85.3791 205.006 85.3801C205.006 85.3811 205.006 85.3821 205.006 85.383C205.006 85.384 205.006 85.385 205.006 85.3859C205.006 85.3868 205.006 85.3878 205.006 85.3888C205.006 85.3898 205.006 85.3907 205.006 85.3917C205.006 85.3927 205.006 85.3937 205.006 85.3946C205.006 85.3956 205.006 85.3965 205.006 85.3975C205.006 85.3984 205.006 85.3994 205.006 85.4004C205.006 85.4014 205.006 85.4023 205.006 85.4033C205.006 85.4043 205.006 85.4053 205.006 85.4062C205.006 85.4071 205.006 85.4081 205.006 85.4091C205.006 85.41 205.006 85.411 205.006 85.412C205.006 85.413 205.006 85.4139 205.006 85.4149C205.006 85.4159 205.006 85.4168 205.006 85.4177C205.006 85.4187 205.006 85.4197 205.006 85.4207C205.006 85.4216 205.006 85.4226 205.006 85.4236C205.006 85.4246 205.006 85.4255 205.006 85.4265C205.006 85.4274 205.006 85.4284 205.006 85.4293C205.006 85.4303 205.006 85.4313 205.006 85.4322C205.006 85.4332 205.006 85.4342 205.006 85.4352C205.006 85.4361 205.006 85.4371 205.006 85.438C205.006 85.439 205.006 85.4399 205.006 85.4409C205.006 85.4419 205.006 85.4429 205.006 85.4438C205.006 85.4448 205.006 85.4458 205.006 85.4467C205.006 85.4476 205.006 85.4486 205.006 85.4496C205.006 85.4506 205.006 85.4515 205.006 85.4525C205.006 85.4535 205.006 85.4545 205.006 85.4554C205.006 85.4564 205.006 85.4574 205.006 85.4583C205.006 85.4592 205.006 85.4602 205.006 85.4612C205.006 85.4622 205.006 85.4631 205.006 85.4641C205.006 85.4651 205.006 85.466 205.006 85.467C205.006 85.4679 205.006 85.4689 205.006 85.4698C205.006 85.4708 205.006 85.4718 205.006 85.4728C205.006 85.4737 205.006 85.4747 205.006 85.4757C205.006 85.4767 205.006 85.4776 205.006 85.4785C205.006 85.4795 205.006 85.4805 205.006 85.4814C205.006 85.4824 205.006 85.4834 205.006 85.4844C205.006 85.4853 205.006 85.4863 205.006 85.4873C205.006 85.4883 205.006 85.4892 205.006 85.4901C205.006 85.4911 205.006 85.4921 205.006 85.493C205.006 85.494 205.006 85.495 205.006 85.496C205.006 85.4969 205.006 85.4979 205.006 85.4988C205.006 85.4997 205.006 85.5007 205.006 85.5017C205.006 85.5027 205.006 85.5036 205.006 85.5046C205.006 85.5056 205.006 85.5066 205.006 85.5075C205.006 85.5085 205.006 85.5094 205.006 85.5104C205.006 85.5113 205.006 85.5123 205.006 85.5133C205.006 85.5143 205.006 85.5152 205.006 85.5162C205.006 85.5172 205.006 85.5182 205.006 85.5191C205.006 85.52 205.006 85.521 205.006 85.522C205.006 85.5229 205.006 85.5239 205.006 85.5249C205.006 85.5259 205.006 85.5268 205.006 85.5278C205.006 85.5288 205.006 85.5297 205.006 85.5306C205.006 85.5316 205.006 85.5326 205.006 85.5336C205.006 85.5345 205.006 85.5355 205.006 85.5365C205.006 85.5375 205.006 85.5384 205.006 85.5394C205.006 85.5403 205.006 85.5413 205.006 85.5422C205.006 85.5432 205.006 85.5442 205.006 85.5452C205.006 85.5461 205.006 85.5471 205.006 85.5481C205.006 85.5491 205.006 85.5499 205.006 85.5509C205.006 85.5519 205.006 85.5529 205.006 85.5538C205.006 85.5548 205.006 85.5558 205.006 85.5568C205.006 85.5577 205.006 85.5587 205.006 85.5597C205.006 85.5606 205.006 85.5616 205.006 85.5625C205.006 85.5635 205.006 85.5645 205.006 85.5655C205.006 85.5664 205.006 85.5674 205.006 85.5684C205.006 85.5694 205.006 85.5703 205.006 85.5713C205.006 85.5722 205.006 85.5732 205.006 85.5741C205.006 85.5751 205.006 85.5761 205.006 85.5771C205.006 85.578 205.006 85.579 205.006 85.5799C205.006 85.5809 205.006 85.5819 205.006 85.5828C205.006 85.5838 205.006 85.5848 205.006 85.5858C205.006 85.5867 205.006 85.5877 205.006 85.5887C205.006 85.5897 205.006 85.5906 205.006 85.5915C205.006 85.5925 205.006 85.5935 205.006 85.5945C205.006 85.5954 205.006 85.5964 205.006 85.5974C205.006 85.5984 205.006 85.5993 205.006 85.6003C205.006 85.6012 205.006 85.6022 205.006 85.6032C205.006 85.6041 205.006 85.6051 205.006 85.6061C205.006 85.6071 205.006 85.608 205.006 85.609C205.006 85.61 205.006 85.6109 205.006 85.6119C205.006 85.6128 205.006 85.6138 205.006 85.6148C205.006 85.6158 205.006 85.6167 205.006 85.6177C205.006 85.6187 205.006 85.6197 205.006 85.6206C205.006 85.6215 205.006 85.6225 205.006 85.6235C205.006 85.6245 205.006 85.6255 205.006 85.6264C205.006 85.6274 205.006 85.6284 205.006 85.6294C205.006 85.6303 205.006 85.6312 205.006 85.6322C205.006 85.6332 205.006 85.6342 205.006 85.6351C205.006 85.6361 205.006 85.6371 205.006 85.6381C205.006 85.6391 205.006 85.64 205.006 85.6409C205.006 85.6419 205.006 85.6429 205.006 85.6439C205.006 85.6448 205.006 85.6458 205.006 85.6468C205.006 85.6478 205.006 85.6488 205.006 85.6497C205.006 85.6506 205.006 85.6516 205.006 85.6526C205.006 85.6536 205.006 85.6545 205.006 85.6555C205.006 85.6565 205.006 85.6575 205.006 85.6585C205.006 85.6594 205.006 85.6603 205.006 85.6613C205.006 85.6623 205.006 85.6633 205.006 85.6643C205.006 85.6652 205.006 85.6662 205.006 85.6672C205.006 85.6682 205.006 85.6692 205.006 85.6701C205.006 85.671 205.006 85.672 205.006 85.673C205.006 85.674 205.006 85.675 205.006 85.6759C205.006 85.6769 205.006 85.6779 205.006 85.6788C205.006 85.6798 205.006 85.6807 205.006 85.6817C205.006 85.6827 205.006 85.6837 205.006 85.6847C205.006 85.6857 205.006 85.6866 205.006 85.6876C205.006 85.6886 205.006 85.6895 205.006 85.6905C205.006 85.6915 205.006 85.6924 205.006 85.6934C205.006 85.6944 205.006 85.6954 205.006 85.6964C205.006 85.6974 205.006 85.6982 205.006 85.6992C205.006 85.7002 205.006 85.7012 205.006 85.7022C205.006 85.7032 205.006 85.7041 205.006 85.7051C205.006 85.7061 205.006 85.7071 205.006 85.708C205.006 85.709 205.006 85.71 205.006 85.7109C205.006 85.7119 205.006 85.7129 205.006 85.7139C205.006 85.7149 205.006 85.7159 205.006 85.7168C205.006 85.7177 205.006 85.7187 205.006 85.7197C205.006 85.7207 205.006 85.7217 205.006 85.7227C205.006 85.7237 205.006 85.7246 205.006 85.7256C205.006 85.7265 205.006 85.7275 205.006 85.7285C205.006 85.7295 205.006 85.7305 205.006 85.7314C205.006 85.7324 205.006 85.7334 205.006 85.7344C205.006 85.7353 205.006 85.7363 205.006 85.7373C205.006 85.7383 205.006 85.7392 205.006 85.7402C205.006 85.7412 205.006 85.7422 205.006 85.7432C205.006 85.7441 205.006 85.7451 205.006 85.7461C205.006 85.747 205.006 85.748 205.006 85.749C205.006 85.75 205.006 85.751 205.006 85.752C205.006 85.7529 205.006 85.7539 205.006 85.7549C205.006 85.7558 205.006 85.7568 205.006 85.7578C205.006 85.7588 205.006 85.7598 205.006 85.7608C205.006 85.7618 205.006 85.7627 205.006 85.7637C205.006 85.7647 205.006 85.7656 205.006 85.7666C205.006 85.7676 205.006 85.7686 205.006 85.7696C205.006 85.7706 205.006 85.7715 205.006 85.7725C205.006 85.7735 205.006 85.7745 205.006 85.7754C205.006 85.7764 205.006 85.7774 205.006 85.7784C205.006 85.7794 205.006 85.7803 205.006 85.7813C205.006 85.7823 205.006 85.7833 205.006 85.7843C205.006 85.7853 205.006 85.7863 205.006 85.7873C205.006 85.7882 205.006 85.7892 205.006 85.7901C205.006 85.7911 205.006 85.7921 205.006 85.7931C205.006 85.7941 205.006 85.7951 205.006 85.7961C205.006 85.7971 205.006 85.798 205.006 85.799C205.006 85.8 205.006 85.801 205.006 85.802C205.006 85.8029 205.006 85.8039 205.006 85.8049C205.006 85.8059 205.006 85.8068 205.006 85.8078C205.006 85.8088 205.006 85.8098 205.006 85.8108C205.006 85.8118 205.006 85.8128 205.006 85.8138C205.006 85.8147 205.006 85.8157 205.006 85.8167C205.006 85.8177 205.006 85.8187 205.006 85.8197C205.006 85.8207 205.006 85.8217 205.006 85.8226C205.006 85.8236 205.006 85.8246 205.006 85.8256C205.006 85.8265 205.006 85.8275 205.006 85.8285C205.006 85.8295 205.006 85.8305 205.006 85.8314C205.006 85.8324 205.006 85.8334 205.006 85.8344C205.006 85.8354 205.006 85.8364 205.006 85.8374C205.006 85.8384 205.006 85.8394 205.006 85.8403C205.006 85.8413 205.006 85.8423 205.006 85.8433C205.006 85.8443 205.006 85.8453 205.006 85.8463C205.006 85.8473 205.006 85.8483 205.006 85.8492C205.006 85.8502 205.006 85.8512 205.006 85.8522C205.006 85.8532 205.006 85.8542 205.006 85.8552C205.006 85.8562 205.006 85.8571 205.006 85.8581C205.006 85.8591 205.006 85.8601 205.006 85.8611C205.006 85.8621 205.006 85.8631 205.006 85.8641C205.006 85.865 205.006 85.866 205.006 85.867C205.006 85.868 205.006 85.869 205.006 85.8701C205.006 85.8711 205.006 85.8721 205.006 85.873C205.006 85.874 205.006 85.875 205.006 85.876C205.006 85.877 205.006 85.878 205.006 85.879C205.006 85.88 205.006 85.8809 205.006 85.8819C205.006 85.8829 205.006 85.8839 205.006 85.8849C205.006 85.8859 205.006 85.8869 205.006 85.8879C205.006 85.8888 205.006 85.8898 205.006 85.8908C205.006 85.8919 205.006 85.8929 205.006 85.8939C205.006 85.8949 205.006 85.8959 205.006 85.8968C205.006 85.8978 205.006 85.8988 205.006 85.8998C205.006 85.9008 205.006 85.9018 205.006 85.9028C205.006 85.9038 205.006 85.9047 205.006 85.9058C205.006 85.9068 205.006 85.9078 205.006 85.9088C205.006 85.9098 205.006 85.9108 205.006 85.9118C205.006 85.9127 205.006 85.9137 205.006 85.9147C205.006 85.9157 205.006 85.9168 205.006 85.9178C205.006 85.9188 205.006 85.9198 205.006 85.9207C205.006 85.9217 205.006 85.9227 205.006 85.9237C205.006 85.9247 205.006 85.9257 205.006 85.9268C205.006 85.9277 205.006 85.9287 205.006 85.9297C205.006 85.9307 205.006 85.9317 205.006 85.9327C205.006 85.9337 205.006 85.9347 205.006 85.9357C205.006 85.9367 205.006 85.9377 205.006 85.9387C205.006 85.9397 205.006 85.9407 205.006 85.9417C205.006 85.9427 205.006 85.9437 205.006 85.9447C205.006 85.9457 205.006 85.9467 205.006 85.9477C205.006 85.9487 205.006 85.9498 205.006 85.9507C205.006 85.9517 205.006 85.9527 205.006 85.9537C205.006 85.9547 205.006 85.9558 205.006 85.9568C205.006 85.9577 205.006 85.9587 205.006 85.9597C205.006 85.9607 205.006 85.9618 205.006 85.9628C205.006 85.9638 205.006 85.9647 205.006 85.9657C205.006 85.9667 205.006 85.9678 205.006 85.9688C205.006 85.9698 205.006 85.9708 205.006 85.9717C205.006 85.9728 205.006 85.9738 205.006 85.9748C205.006 85.9758 205.006 85.9768 205.006 85.9779C205.006 85.9789 205.006 85.9798 205.006 85.9808C205.006 85.9818 205.006 85.9829 205.006 85.9839C205.006 85.9849 205.006 85.9859 205.006 85.9868C205.006 85.9879 205.006 85.9889 205.006 85.9899C205.006 85.9909 205.006 85.9919 205.006 85.993C205.006 85.9939 205.006 85.9949 205.006 85.9959C205.006 85.997 205.006 85.998 205.006 85.999C205.006 86 205.006 86.001 205.006 86.002C205.006 86.003 205.006 86.004 205.006 86.0051C205.006 86.0061 205.006 86.0071 205.006 86.008C205.006 86.0091 205.006 86.0101 205.006 86.0111C205.006 86.0121 205.006 86.0132 205.006 86.0141C205.006 86.0151 205.006 86.0161 205.006 86.0172C205.006 86.0182 205.006 86.0192 205.006 86.0202C205.006 86.0212 205.006 86.0222 205.006 86.0232C205.006 86.0243 205.006 86.0253 205.006 86.0263C205.006 86.0273 205.006 86.0283 205.006 86.0293C205.006 86.0303 205.006 86.0314 205.006 86.0324C205.006 86.0334 205.006 86.0344 205.006 86.0354C205.006 86.0364 205.006 86.0374 205.006 86.0385C205.006 86.0395 205.006 86.0405 205.006 86.0415C205.006 86.0425 205.006 86.0435 205.006 86.0446C205.006 86.0456 205.006 86.0466 205.006 86.0477C205.006 86.0486 205.006 86.0496 205.006 86.0507C205.006 86.0517 205.006 86.0527 205.006 86.0538C205.006 86.0547 205.006 86.0557 205.006 86.0568C205.006 86.0578 205.006 86.0588 205.006 86.0599C205.006 86.0609 205.006 86.0618 205.006 86.0629C205.006 86.0639 205.006 86.0649 205.006 86.066C205.006 86.067 205.006 86.068 205.006 86.069C205.006 86.07 205.006 86.0711 205.006 86.0721C205.006 86.0731 205.006 86.0741 205.006 86.0751C205.006 86.0761 205.006 86.0772 205.006 86.0782C205.006 86.0793 205.006 86.0803 205.006 86.0812C205.006 86.0823 205.006 86.0833 205.006 86.0844C205.006 86.0854 205.006 86.0864 205.006 86.0874C205.006 86.0884 205.006 86.0895 205.006 86.0905C205.006 86.0915 205.006 86.0926 205.006 86.0936C205.006 86.0946 205.006 86.0956 205.006 86.0967C205.006 86.0977 205.006 86.0987 205.006 86.0997C205.006 86.1007 205.006 86.1018 205.006 86.1028C205.006 86.1039 205.006 86.1049 205.006 86.1059C205.006 86.1069 205.006 86.1079 205.006 86.109C205.006 86.11 205.006 86.1111 205.006 86.1121C205.006 86.1131 205.006 86.1141 205.006 86.1152C205.006 86.1162 205.006 86.1172 205.006 86.1182C205.006 86.1192 205.006 86.1203 205.006 86.1213C205.006 86.1224 205.006 86.1234 205.006 86.1244C205.006 86.1254 205.006 86.1265 205.006 86.1275C205.006 86.1286 205.006 86.1296 205.006 86.1306C205.006 86.1316 205.006 86.1327 205.006 86.1337C205.006 86.1348 205.006 86.1358 205.006 86.1368C205.006 86.1378 205.006 86.1389 205.006 86.1399C205.006 86.141 205.006 86.142 205.006 86.143C205.006 86.144 205.006 86.1451 205.006 86.1461C205.006 86.1472 205.006 86.1482 205.006 86.1492C205.006 86.1503 205.006 86.1513 205.006 86.1524C205.006 86.1534 205.006 86.1544 205.006 86.1554C205.006 86.1565 205.006 86.1575 205.006 86.1586C205.006 86.1597 205.006 86.1606 205.006 86.1617C205.006 86.1627 205.006 86.1638 205.006 86.1648C205.006 86.1659 205.006 86.1668 205.006 86.1679C205.006 86.169 205.006 86.17 205.006 86.1711C205.006 86.1721 205.006 86.1731 205.006 86.1742C205.006 86.1752 205.006 86.1763 205.006 86.1773C205.006 86.1783 205.006 86.1794 205.006 86.1804C205.006 86.1815 205.006 86.1825 205.006 86.1835C205.006 86.1846 205.006 86.1856 205.006 86.1867C205.006 86.1877 205.006 86.1888 205.006 86.1898C205.006 86.1908 205.006 86.1919 205.006 86.193C205.006 86.194 205.006 86.195 205.006 86.1961C205.006 86.1971 205.006 86.1982 205.006 86.1993C205.006 86.2002 205.006 86.2013 205.006 86.2023C205.006 86.2034 205.006 86.2045 205.006 86.2055C205.006 86.2066 205.006 86.2076 205.006 86.2086C205.006 86.2097 205.006 86.2108 205.006 86.2118C205.006 86.2128 205.006 86.2139 205.006 86.215C205.006 86.216 205.006 86.2171 205.006 86.2181C205.006 86.2191 205.006 86.2202 205.006 86.2213C205.006 86.2223 205.006 86.2233 205.006 86.2244C205.006 86.2255 205.006 86.2265 205.006 86.2276H210.395ZM210.395 84.7006C210.395 78.0372 209.227 72.3976 206.639 67.952C204.012 63.439 200.041 60.3641 194.878 58.6938L193.219 63.8212C197.218 65.115 200.072 67.3844 201.982 70.6633C203.929 74.0097 205.006 78.6095 205.006 84.7006H210.395ZM196.16 62.93L209.813 45.6845L205.588 42.3394L191.935 59.5849L196.16 62.93ZM207.701 41.3174H197.281V46.7066H207.701V41.3174ZM195.158 42.3533L181.056 60.4072L185.303 63.7246L199.405 45.6707L195.158 42.3533ZM185.874 62.0659V22.1856H180.485V62.0659H185.874ZM183.18 19.491H174.647V24.8802H183.18V19.491ZM171.952 22.1856V86.2276H177.341V22.1856H171.952ZM223.948 44.012H226.643V41.3174H223.948V44.012ZM215.325 44.012V41.3174H212.631V44.012H215.325ZM249.367 80.6587L247.24 79.0044L247.236 79.01L247.231 79.0158L249.367 80.6587ZM252.691 44.012H255.385V41.3174H252.691V44.012ZM244.068 44.012V41.3174H241.373V44.012H244.068ZM223.948 41.3174H215.325V46.7066H223.948V41.3174ZM212.631 44.012V67.2755H218.02V44.012H212.631ZM212.631 67.2755C212.631 74.3238 214.234 80.1153 217.978 84.1435C221.757 88.21 227.265 90 234.008 90V84.6108C228.176 84.6108 224.344 83.0775 221.925 80.4748C219.471 77.8338 218.02 73.6104 218.02 67.2755H212.631ZM234.008 90C241.435 90 247.272 87.8026 251.503 82.3016L247.231 79.0158C244.277 82.8562 240.234 84.6108 234.008 84.6108V90ZM251.494 82.313C255.256 77.4774 255.385 72.4822 255.385 67.2755H249.996C249.996 72.4879 249.767 75.7561 247.24 79.0044L251.494 82.313ZM255.385 67.2755V44.012H249.996V67.2755H255.385ZM252.691 41.3174H244.068V46.7066H252.691V41.3174ZM241.373 44.012V67.0958H246.762V44.012H241.373ZM241.373 67.0958C241.373 70.5861 240.558 72.7974 239.419 74.1079C238.335 75.3551 236.624 76.1677 233.918 76.1677V81.5569C237.77 81.5569 241.134 80.3485 243.486 77.6436C245.783 75.0019 246.762 71.3301 246.762 67.0958H241.373ZM233.918 76.1677C231.27 76.1677 229.612 75.364 228.56 74.1279C227.443 72.8186 226.643 70.6007 226.643 67.0958H221.254C221.254 71.3155 222.205 74.9808 224.457 77.6237C226.772 80.3396 230.099 81.5569 233.918 81.5569V76.1677ZM226.643 67.0958V44.012H221.254V67.0958H226.643ZM260.705 51.4671H258.011V54.1617H260.705V51.4671ZM265.017 51.4671H267.711V48.7725H265.017V51.4671ZM283.52 86.2276L283.479 88.9219L286.214 88.963V86.2276H283.52ZM283.52 77.6048H286.214V75.1603L283.781 74.9229L283.52 77.6048ZM273.46 51.4671V48.7725H270.765V51.4671H273.46ZM282.981 51.4671V54.1617H285.675V51.4671H282.981ZM282.981 44.012H285.675V41.3174H282.981V44.012ZM273.46 44.012H270.765V46.7066H273.46V44.012ZM273.46 34.0419H276.154V31.3473H273.46V34.0419ZM265.017 34.0419V31.3473H262.322V34.0419H265.017ZM265.017 44.012V46.7066H267.711V44.012H265.017ZM260.705 44.012V41.3174H258.011V44.012H260.705ZM260.705 54.1617H265.017V48.7725H260.705V54.1617ZM262.322 51.4671V67.2755H267.711V51.4671H262.322ZM262.322 67.2755C262.322 73.7696 264.098 79.2229 267.86 83.0793C271.626 86.9396 277.016 88.8247 283.479 88.9219L283.56 83.5332C278.077 83.4508 274.216 81.8778 271.717 79.316C269.214 76.7502 267.711 72.8173 267.711 67.2755H262.322ZM286.214 86.2276V77.6048H280.825V86.2276H286.214ZM283.781 74.9229C280.516 74.6044 278.843 73.6516 277.869 72.3769C276.815 70.9952 276.154 68.6922 276.154 64.7605H270.765C270.765 69.0923 271.452 72.8521 273.586 75.6471C275.801 78.549 279.157 79.8866 283.258 80.2867L283.781 74.9229ZM276.154 64.7605V51.4671H270.765V64.7605H276.154ZM273.46 54.1617H282.981V48.7725H273.46V54.1617ZM285.675 51.4671V44.012H280.286V51.4671H285.675ZM282.981 41.3174H273.46V46.7066H282.981V41.3174ZM276.154 44.012V34.0419H270.765V44.012H276.154ZM273.46 31.3473H265.017V36.7365H273.46V31.3473ZM262.322 34.0419V44.012H267.711V34.0419H262.322ZM265.017 41.3174H260.705V46.7066H265.017V41.3174ZM258.011 44.012V51.4671H263.4V44.012H258.011Z" fill="#ED2590"/>
</svg>
