<svg width="150" height="131" viewBox="0 0 150 131" fill="none" xmlns="http://www.w3.org/2000/svg">
<g clip-path="url(#clip0_19426_3297)">
<path d="M135.246 67.9934C135.265 84.1602 129.016 99.7049 117.813 111.36C117.137 112.067 116.444 112.757 115.732 113.43C114.647 114.462 113.526 115.454 112.369 116.406C101.541 125.327 88.0228 130.34 73.9963 130.636C73.529 130.647 73.0599 130.652 72.589 130.652C61.4025 130.652 47.3326 124.677 34.5642 116.406C33.5079 115.721 32.4609 115.021 31.4233 114.305C30.9383 113.974 30.4557 113.637 29.9754 113.296C25.0508 109.819 20.3764 106 15.9866 101.868C13.1124 99.171 10.4172 96.2891 7.91817 93.2409C-1.89268 81.1392 -4.05661 70.2349 9.93042 67.9934C11.5864 67.7288 13.1937 67.4461 14.7521 67.1451C17.0095 66.7112 19.1699 66.2427 21.2333 65.7395C24.0127 65.064 26.624 64.3316 29.0671 63.5421C29.889 63.2775 30.692 63.0077 31.4762 62.7326C43.07 58.6604 50.8298 53.3503 56.1118 47.5886C57.0077 46.6134 57.8336 45.6263 58.5896 44.6276C59.7463 43.1073 60.7969 41.5092 61.7341 39.8447C63.0276 37.5319 64.1141 35.1093 64.9809 32.6052L65.0285 32.4676C69.2311 20.3447 67.9525 9.10005 72.589 5.33655C92.4082 -10.7527 117.083 12.1599 128.664 39.1798C129.248 40.5413 129.797 41.911 130.311 43.289C130.542 43.9045 130.765 44.5212 130.98 45.139C131.544 46.7491 132.056 48.3634 132.516 49.9818C132.692 50.5991 132.86 51.2157 133.02 51.8318C133.191 52.4967 133.355 53.1598 133.507 53.8229C134.634 58.6781 135.246 63.4662 135.246 67.9934Z" fill="#D9E6F6"/>
<path d="M73.9964 130.636C73.5291 130.647 73.0599 130.652 72.589 130.652C61.4026 130.652 47.3327 124.677 34.5643 116.406C33.5079 115.721 32.4609 115.021 31.4233 114.305L32.3334 108.768L59.8824 105.11L73.7089 115.683L73.9964 130.636Z" fill="#2F2E41"/>
<path d="M75.3225 31.7534H71.3967C71.2752 31.7534 71.1586 31.8017 71.0726 31.8877C70.9866 31.9737 70.9383 32.0903 70.9382 32.2119V36.1394C70.9383 36.1995 70.9502 36.259 70.9733 36.3145C70.9964 36.37 71.0302 36.4204 71.0728 36.4628C71.1153 36.5053 71.1659 36.5389 71.2215 36.5618C71.2771 36.5846 71.3366 36.5963 71.3967 36.5962H75.3225C75.4438 36.5962 75.5602 36.5481 75.6462 36.4625C75.7321 36.3769 75.7806 36.2607 75.781 36.1394V32.2119C75.7807 32.0904 75.7323 31.9739 75.6463 31.888C75.5604 31.8021 75.444 31.7537 75.3225 31.7534Z" fill="white"/>
<path d="M75.3225 38.4462H71.3967C71.2751 38.4462 71.1586 38.4945 71.0726 38.5805C70.9866 38.6665 70.9383 38.7831 70.9382 38.9047V42.8322C70.9383 42.8923 70.9502 42.9518 70.9733 43.0073C70.9964 43.0628 71.0302 43.1132 71.0728 43.1557C71.1153 43.1981 71.1659 43.2317 71.2215 43.2546C71.2771 43.2774 71.3366 43.2891 71.3967 43.289H75.3225C75.4438 43.289 75.5602 43.241 75.6462 43.1553C75.7321 43.0697 75.7806 42.9535 75.781 42.8322V38.9047C75.7807 38.7832 75.7323 38.6668 75.6463 38.5809C75.5604 38.4949 75.444 38.4465 75.3225 38.4462Z" fill="#E6E6E6"/>
<path d="M75.3225 45.139H71.3967C71.2751 45.139 71.1585 45.1874 71.0726 45.2734C70.9866 45.3593 70.9383 45.4759 70.9382 45.5975V49.5233C70.9381 49.5835 70.9499 49.6432 70.9729 49.6989C70.9959 49.7546 71.0297 49.8052 71.0723 49.8478C71.1149 49.8904 71.1654 49.9241 71.2211 49.9471C71.2768 49.9701 71.3365 49.9819 71.3967 49.9818H75.3225C75.4441 49.9817 75.5607 49.9334 75.6467 49.8474C75.7327 49.7615 75.781 49.6449 75.781 49.5233V45.5975C75.7807 45.476 75.7323 45.3596 75.6464 45.2737C75.5604 45.1878 75.444 45.1393 75.3225 45.139Z" fill="#E6E6E6"/>
<path d="M75.774 52.2092C75.7544 52.1036 75.6986 52.0081 75.6162 51.9392C75.5338 51.8703 75.4299 51.8323 75.3225 51.8318H71.3967C71.2752 51.8319 71.1586 51.8802 71.0726 51.9662C70.9866 52.0521 70.9383 52.1687 70.9382 52.2903V56.2161C70.9381 56.2763 70.9499 56.336 70.9729 56.3917C70.9959 56.4474 71.0296 56.498 71.0722 56.5406C71.1148 56.5832 71.1654 56.6169 71.2211 56.6399C71.2768 56.6629 71.3365 56.6747 71.3967 56.6746H75.3225C75.4441 56.6745 75.5607 56.6262 75.6467 56.5402C75.7327 56.4543 75.781 56.3377 75.7811 56.2161V52.2903C75.7814 52.2631 75.779 52.236 75.774 52.2092Z" fill="#E6E6E6"/>
<path d="M75.5006 58.5599C75.4441 58.5366 75.3836 58.5246 75.3225 58.5247H71.3967C71.3365 58.5245 71.2768 58.5363 71.2211 58.5593C71.1654 58.5823 71.1149 58.6161 71.0723 58.6587C71.0296 58.7013 70.9959 58.7519 70.9729 58.8076C70.9499 58.8633 70.9381 58.9229 70.9382 58.9832V62.9089C70.938 62.9692 70.9496 63.029 70.9726 63.0847C70.9955 63.1405 71.0293 63.1911 71.0719 63.2338C71.1145 63.2764 71.1652 63.3102 71.2209 63.3331C71.2767 63.3561 71.3364 63.3678 71.3967 63.3675H75.3225C75.4441 63.3674 75.5607 63.3191 75.6467 63.2331C75.7327 63.1471 75.781 63.0305 75.781 62.9089V58.9832C75.7808 58.8929 75.7541 58.8047 75.7043 58.7295C75.6544 58.6543 75.5836 58.5953 75.5006 58.5599Z" fill="#E6E6E6"/>
<path d="M83.5691 31.7534H79.6433C79.5217 31.7534 79.4051 31.8017 79.3192 31.8877C79.2332 31.9737 79.1849 32.0903 79.1848 32.2119V36.1394C79.1849 36.1995 79.1968 36.259 79.2199 36.3145C79.243 36.37 79.2768 36.4204 79.3193 36.4628C79.3619 36.5053 79.4125 36.5389 79.4681 36.5618C79.5237 36.5846 79.5832 36.5963 79.6433 36.5962H83.5691C83.6904 36.5962 83.8068 36.5481 83.8927 36.4625C83.9787 36.3769 84.0272 36.2607 84.0276 36.1394V32.2119C84.0273 32.0904 83.9788 31.9739 83.8929 31.888C83.807 31.8021 83.6906 31.7537 83.5691 31.7534Z" fill="#E6E6E6"/>
<path d="M83.5691 38.4462H79.6433C79.5217 38.4462 79.4051 38.4945 79.3192 38.5805C79.2332 38.6665 79.1849 38.7831 79.1848 38.9047V42.8322C79.1849 42.8923 79.1968 42.9518 79.2199 43.0073C79.243 43.0628 79.2768 43.1132 79.3193 43.1557C79.3619 43.1981 79.4125 43.2317 79.4681 43.2546C79.5237 43.2774 79.5832 43.2891 79.6433 43.289H83.5691C83.6904 43.289 83.8068 43.241 83.8928 43.1553C83.9787 43.0697 84.0272 42.9535 84.0276 42.8322V38.9047C84.0273 38.7832 83.9788 38.6668 83.8929 38.5809C83.807 38.4949 83.6906 38.4465 83.5691 38.4462Z" fill="#ED2590"/>
<path d="M83.5691 45.139H79.6433C79.5217 45.139 79.4051 45.1874 79.3192 45.2734C79.2332 45.3593 79.1849 45.4759 79.1848 45.5975V49.5233C79.1847 49.5835 79.1965 49.6432 79.2195 49.6989C79.2425 49.7546 79.2762 49.8052 79.3188 49.8478C79.3614 49.8904 79.412 49.9241 79.4677 49.9471C79.5234 49.9701 79.5831 49.9819 79.6433 49.9818H83.5691C83.6907 49.9817 83.8073 49.9334 83.8933 49.8474C83.9792 49.7615 84.0276 49.6449 84.0276 49.5233V45.5975C84.0273 45.476 83.9788 45.3596 83.8929 45.2737C83.807 45.1878 83.6906 45.1393 83.5691 45.139Z" fill="#ED2590"/>
<path d="M83.5691 51.8318H79.6433C79.5472 51.8319 79.4535 51.8622 79.3756 51.9186C79.2978 51.9749 79.2396 52.0544 79.2095 52.1457C79.1932 52.1922 79.1848 52.2411 79.1848 52.2903V56.2161C79.1847 56.2763 79.1965 56.336 79.2195 56.3917C79.2425 56.4474 79.2762 56.498 79.3188 56.5406C79.3614 56.5832 79.412 56.617 79.4677 56.64C79.5234 56.663 79.5831 56.6747 79.6433 56.6746H83.5691C83.6907 56.6746 83.8073 56.6262 83.8933 56.5403C83.9792 56.4543 84.0276 56.3377 84.0276 56.2161V52.2903C84.0273 52.1688 83.9788 52.0524 83.8929 51.9665C83.807 51.8806 83.6906 51.8321 83.5691 51.8318Z" fill="#ED2590"/>
<path d="M83.5691 58.5247H79.6433C79.5831 58.5245 79.5234 58.5363 79.4677 58.5593C79.412 58.5823 79.3614 58.6161 79.3188 58.6587C79.2762 58.7013 79.2425 58.7519 79.2195 58.8076C79.1965 58.8633 79.1847 58.9229 79.1848 58.9832V62.9089C79.1847 62.9692 79.1965 63.0289 79.2195 63.0846C79.2425 63.1402 79.2762 63.1908 79.3188 63.2335C79.3614 63.2761 79.412 63.3098 79.4677 63.3328C79.5234 63.3558 79.5831 63.3676 79.6433 63.3675H83.5691C83.6907 63.3674 83.8073 63.3191 83.8933 63.2331C83.9792 63.1471 84.0276 63.0305 84.0276 62.9089V58.9832C84.0276 58.8616 83.9792 58.745 83.8933 58.659C83.8073 58.573 83.6907 58.5247 83.5691 58.5247Z" fill="#E6E6E6"/>
<path d="M91.8156 31.7534H87.8899C87.7683 31.7534 87.6517 31.8017 87.5658 31.8877C87.4798 31.9737 87.4315 32.0903 87.4314 32.2119V36.1394C87.4315 36.1995 87.4434 36.259 87.4665 36.3145C87.4895 36.37 87.5233 36.4204 87.5659 36.4628C87.6085 36.5053 87.659 36.5389 87.7146 36.5618C87.7702 36.5846 87.8298 36.5963 87.8899 36.5962H91.8156C91.9369 36.5962 92.0533 36.5481 92.1393 36.4625C92.2252 36.3769 92.2737 36.2607 92.2741 36.1394V32.2119C92.2738 32.0904 92.2254 31.9739 92.1394 31.888C92.0535 31.8021 91.9371 31.7537 91.8156 31.7534Z" fill="#ED2590"/>
<path d="M91.8156 38.4462H87.8899C87.7683 38.4462 87.6517 38.4945 87.5657 38.5805C87.4798 38.6665 87.4314 38.7831 87.4314 38.9047V42.8322C87.4315 42.8923 87.4434 42.9518 87.4665 43.0073C87.4895 43.0628 87.5233 43.1132 87.5659 43.1557C87.6085 43.1981 87.659 43.2317 87.7146 43.2546C87.7702 43.2774 87.8298 43.2891 87.8899 43.289H91.8156C91.9369 43.289 92.0533 43.241 92.1393 43.1553C92.2252 43.0697 92.2737 42.9535 92.2741 42.8322V38.9047C92.2738 38.7832 92.2254 38.6668 92.1394 38.5809C92.0535 38.4949 91.9371 38.4465 91.8156 38.4462Z" fill="#ED2590"/>
<path d="M91.8156 45.139H87.8899C87.7683 45.139 87.6517 45.1874 87.5657 45.2734C87.4798 45.3593 87.4314 45.4759 87.4314 45.5975V49.5233C87.4313 49.5835 87.4431 49.6432 87.4661 49.6989C87.4891 49.7546 87.5228 49.8052 87.5654 49.8478C87.608 49.8904 87.6586 49.9241 87.7143 49.9471C87.77 49.9701 87.8297 49.9819 87.8899 49.9818H91.8156C91.9372 49.9817 92.0538 49.9334 92.1398 49.8474C92.2258 49.7615 92.2741 49.6449 92.2742 49.5233V45.5975C92.2738 45.476 92.2254 45.3596 92.1395 45.2737C92.0535 45.1878 91.9371 45.1393 91.8156 45.139Z" fill="#E6E6E6"/>
<path d="M91.8156 51.8318H87.8899C87.7683 51.8319 87.6517 51.8802 87.5658 51.9662C87.4798 52.0521 87.4315 52.1687 87.4314 52.2903V56.2161C87.4313 56.2763 87.443 56.336 87.466 56.3917C87.489 56.4474 87.5228 56.498 87.5654 56.5406C87.608 56.5832 87.6586 56.6169 87.7143 56.6399C87.77 56.6629 87.8297 56.6747 87.8899 56.6746H91.8156C91.9372 56.6745 92.0538 56.6262 92.1398 56.5402C92.2258 56.4543 92.2741 56.3377 92.2742 56.2161V52.2903C92.2738 52.1688 92.2254 52.0524 92.1395 51.9665C92.0535 51.8806 91.9371 51.8321 91.8156 51.8318Z" fill="#ED2590"/>
<path d="M91.8156 58.5247H87.8899C87.8297 58.5245 87.77 58.5363 87.7143 58.5593C87.6586 58.5823 87.608 58.6161 87.5654 58.6587C87.5228 58.7013 87.4891 58.7519 87.4661 58.8076C87.4431 58.8633 87.4313 58.9229 87.4314 58.9832V62.9089C87.4313 62.9692 87.443 63.0289 87.466 63.0846C87.489 63.1402 87.5228 63.1908 87.5654 63.2335C87.608 63.2761 87.6586 63.3098 87.7143 63.3328C87.77 63.3558 87.8297 63.3676 87.8899 63.3675H91.8156C91.9372 63.3674 92.0538 63.3191 92.1398 63.2331C92.2258 63.1471 92.2741 63.0305 92.2742 62.9089V58.9832C92.2741 58.8616 92.2258 58.745 92.1398 58.659C92.0538 58.573 91.9372 58.5247 91.8156 58.5247Z" fill="#ED2590"/>
<path d="M100.062 31.7534H96.1365C96.0149 31.7534 95.8983 31.8017 95.8123 31.8877C95.7264 31.9737 95.678 32.0903 95.678 32.2119V36.1394C95.678 36.1995 95.69 36.259 95.713 36.3145C95.7361 36.37 95.7699 36.4204 95.8125 36.4628C95.8551 36.5053 95.9056 36.5389 95.9612 36.5618C96.0168 36.5846 96.0764 36.5963 96.1365 36.5962H100.062C100.184 36.5962 100.3 36.5481 100.386 36.4625C100.472 36.3769 100.52 36.2607 100.521 36.1394V32.2119C100.52 32.0904 100.472 31.9739 100.386 31.888C100.3 31.8021 100.184 31.7537 100.062 31.7534Z" fill="#ED2590"/>
<path d="M100.062 38.4462H96.1365C96.0149 38.4462 95.8983 38.4945 95.8123 38.5805C95.7264 38.6665 95.678 38.7831 95.678 38.9047V42.8322C95.678 42.8923 95.69 42.9518 95.713 43.0073C95.7361 43.0628 95.7699 43.1132 95.8125 43.1557C95.8551 43.1981 95.9056 43.2317 95.9612 43.2546C96.0168 43.2774 96.0764 43.2891 96.1365 43.289H100.062C100.184 43.289 100.3 43.241 100.386 43.1553C100.472 43.0697 100.52 42.9535 100.521 42.8322V38.9047C100.52 38.7832 100.472 38.6668 100.386 38.5809C100.3 38.4949 100.184 38.4465 100.062 38.4462Z" fill="white"/>
<path d="M100.062 45.139H96.1365C96.0149 45.139 95.8983 45.1874 95.8123 45.2734C95.7264 45.3593 95.678 45.4759 95.678 45.5975V49.5233C95.6779 49.5835 95.6896 49.6432 95.7126 49.6989C95.7356 49.7546 95.7694 49.8052 95.812 49.8478C95.8546 49.8904 95.9052 49.9241 95.9609 49.9471C96.0166 49.9701 96.0763 49.9819 96.1365 49.9818H100.062C100.184 49.9817 100.3 49.9334 100.386 49.8474C100.472 49.7615 100.521 49.6449 100.521 49.5233V45.5975C100.52 45.476 100.472 45.3596 100.386 45.2737C100.3 45.1878 100.184 45.1393 100.062 45.139Z" fill="white"/>
<path d="M100.062 51.8318H96.1365C96.0149 51.8318 95.8983 51.8802 95.8123 51.9662C95.7264 52.0521 95.678 52.1687 95.678 52.2903V56.2161C95.6779 56.2763 95.6896 56.336 95.7126 56.3917C95.7356 56.4474 95.7694 56.498 95.812 56.5406C95.8546 56.5832 95.9052 56.6169 95.9609 56.6399C96.0166 56.6629 96.0763 56.6747 96.1365 56.6746H100.062C100.184 56.6745 100.3 56.6262 100.386 56.5402C100.472 56.4543 100.521 56.3377 100.521 56.2161V52.2903C100.52 52.1688 100.472 52.0524 100.386 51.9665C100.3 51.8806 100.184 51.8321 100.062 51.8318Z" fill="#E6E6E6"/>
<path d="M100.062 58.5247H96.1365C96.0763 58.5245 96.0166 58.5363 95.9609 58.5593C95.9052 58.5823 95.8546 58.6161 95.812 58.6587C95.7694 58.7013 95.7356 58.7519 95.7126 58.8076C95.6896 58.8633 95.6779 58.9229 95.678 58.9832V62.9089C95.6779 62.9692 95.6896 63.0289 95.7126 63.0846C95.7356 63.1402 95.7694 63.1908 95.812 63.2335C95.8546 63.2761 95.9052 63.3098 95.9609 63.3328C96.0166 63.3558 96.0763 63.3676 96.1365 63.3675H100.062C100.184 63.3674 100.3 63.3191 100.386 63.2331C100.472 63.1471 100.521 63.0305 100.521 62.9089V58.9832C100.521 58.8616 100.472 58.745 100.386 58.659C100.3 58.573 100.184 58.5247 100.062 58.5247Z" fill="#ED2590"/>
<path d="M108.309 31.7534H104.381C104.26 31.7538 104.144 31.8023 104.058 31.8882C103.973 31.9742 103.925 32.0905 103.925 32.2119V36.1394C103.925 36.2605 103.973 36.3767 104.058 36.4624C104.144 36.548 104.26 36.5961 104.381 36.5962H108.309C108.43 36.5962 108.547 36.5482 108.633 36.4625C108.718 36.3769 108.767 36.2607 108.767 36.1394V32.2119C108.767 32.0904 108.719 31.9739 108.633 31.888C108.547 31.8021 108.43 31.7537 108.309 31.7534Z" fill="white"/>
<path d="M108.309 38.4462H104.381C104.26 38.4466 104.144 38.4951 104.058 38.581C103.973 38.667 103.925 38.7834 103.925 38.9047V42.8322C103.925 42.9533 103.973 43.0695 104.058 43.1552C104.144 43.2408 104.26 43.2889 104.381 43.289H108.309C108.43 43.289 108.547 43.241 108.633 43.1553C108.718 43.0697 108.767 42.9535 108.767 42.8322V38.9047C108.767 38.7832 108.719 38.6668 108.633 38.5809C108.547 38.4949 108.43 38.4465 108.309 38.4462Z" fill="white"/>
<path d="M108.309 45.139H104.381C104.26 45.1394 104.144 45.1879 104.058 45.2739C103.973 45.3598 103.925 45.4762 103.925 45.5975V49.5233C103.924 49.5834 103.936 49.6429 103.959 49.6985C103.982 49.7541 104.015 49.8047 104.058 49.8472C104.1 49.8898 104.151 49.9236 104.206 49.9467C104.262 49.9698 104.321 49.9817 104.381 49.9818H108.309C108.43 49.9817 108.547 49.9334 108.633 49.8474C108.719 49.7615 108.767 49.6449 108.767 49.5233V45.5975C108.767 45.476 108.719 45.3596 108.633 45.2737C108.547 45.1878 108.43 45.1393 108.309 45.139Z" fill="white"/>
<path d="M108.309 51.8318H104.381C104.26 51.8322 104.144 51.8807 104.058 51.9667C103.973 52.0526 103.925 52.169 103.925 52.2903V56.2161C103.924 56.2762 103.936 56.3358 103.959 56.3914C103.982 56.4469 104.015 56.4975 104.058 56.5401C104.1 56.5827 104.151 56.6165 104.206 56.6396C104.262 56.6626 104.321 56.6746 104.381 56.6746H108.309C108.43 56.6746 108.547 56.6262 108.633 56.5403C108.719 56.4543 108.767 56.3377 108.767 56.2161V52.2903C108.767 52.1688 108.719 52.0524 108.633 51.9665C108.547 51.8806 108.43 51.8321 108.309 51.8318Z" fill="#ED2590"/>
<path d="M108.309 58.5247H104.381C104.321 58.5247 104.262 58.5366 104.206 58.5597C104.151 58.5828 104.1 58.6166 104.058 58.6592C104.015 58.7018 103.982 58.7523 103.959 58.8079C103.936 58.8635 103.924 58.9231 103.925 58.9832V62.9089C103.924 62.9691 103.936 63.0286 103.959 63.0842C103.982 63.1398 104.015 63.1903 104.058 63.2329C104.1 63.2755 104.151 63.3093 104.206 63.3324C104.262 63.3555 104.321 63.3674 104.381 63.3675H108.309C108.43 63.3674 108.547 63.3191 108.633 63.2331C108.719 63.1471 108.767 63.0305 108.767 62.9089V58.9832C108.767 58.8616 108.719 58.745 108.633 58.659C108.547 58.573 108.43 58.5247 108.309 58.5247Z" fill="#E6E6E6"/>
<path d="M116.555 31.7534H112.628C112.506 31.7538 112.39 31.8023 112.305 31.8882C112.219 31.9742 112.171 32.0905 112.171 32.2119V36.1394C112.171 36.2605 112.219 36.3767 112.305 36.4624C112.39 36.548 112.507 36.5961 112.628 36.5962H116.555C116.677 36.5962 116.793 36.5482 116.879 36.4625C116.965 36.3769 117.013 36.2607 117.014 36.1394V32.2119C117.013 32.0904 116.965 31.9739 116.879 31.888C116.793 31.8021 116.677 31.7537 116.555 31.7534Z" fill="white"/>
<path d="M116.555 38.4462H112.628C112.506 38.4466 112.39 38.4951 112.305 38.581C112.219 38.667 112.171 38.7834 112.171 38.9047V42.8322C112.171 42.9533 112.219 43.0695 112.305 43.1552C112.39 43.2408 112.507 43.2889 112.628 43.289H116.555C116.677 43.289 116.793 43.241 116.879 43.1553C116.965 43.0697 117.013 42.9535 117.014 42.8322V38.9047C117.013 38.7832 116.965 38.6668 116.879 38.5809C116.793 38.4949 116.677 38.4465 116.555 38.4462Z" fill="white"/>
<path d="M116.555 45.139H112.628C112.506 45.1394 112.39 45.1879 112.305 45.2739C112.219 45.3598 112.171 45.4762 112.171 45.5975V49.5233C112.171 49.5834 112.182 49.6429 112.205 49.6985C112.228 49.7541 112.262 49.8047 112.304 49.8472C112.347 49.8898 112.397 49.9236 112.453 49.9467C112.508 49.9698 112.568 49.9817 112.628 49.9818H116.555C116.677 49.9817 116.793 49.9334 116.879 49.8474C116.965 49.7615 117.014 49.6449 117.014 49.5233V45.5975C117.013 45.476 116.965 45.3596 116.879 45.2737C116.793 45.1878 116.677 45.1393 116.555 45.139Z" fill="#ED2590"/>
<path d="M116.555 51.8318H112.628C112.506 51.8322 112.39 51.8807 112.305 51.9667C112.219 52.0526 112.171 52.169 112.171 52.2903V56.2161C112.171 56.2762 112.182 56.3358 112.205 56.3914C112.228 56.4469 112.262 56.4975 112.304 56.5401C112.347 56.5827 112.397 56.6165 112.453 56.6396C112.508 56.6626 112.568 56.6746 112.628 56.6746H116.555C116.677 56.6746 116.793 56.6262 116.879 56.5403C116.965 56.4543 117.014 56.3377 117.014 56.2161V52.2903C117.013 52.1688 116.965 52.0524 116.879 51.9665C116.793 51.8806 116.677 51.8322 116.555 51.8318Z" fill="#E6E6E6"/>
<path d="M116.555 58.5247H112.628C112.568 58.5247 112.508 58.5366 112.453 58.5597C112.397 58.5828 112.347 58.6166 112.304 58.6592C112.262 58.7018 112.228 58.7523 112.205 58.8079C112.182 58.8635 112.171 58.9231 112.171 58.9832V62.9089C112.171 62.9691 112.182 63.0286 112.205 63.0842C112.228 63.1398 112.262 63.1903 112.304 63.2329C112.347 63.2755 112.397 63.3093 112.453 63.3324C112.508 63.3555 112.568 63.3674 112.628 63.3675H116.555C116.677 63.3674 116.793 63.3191 116.879 63.2331C116.965 63.1471 117.014 63.0305 117.014 62.9089V58.9832C117.014 58.8616 116.965 58.745 116.879 58.659C116.793 58.573 116.677 58.5247 116.555 58.5247Z" fill="white"/>
<path d="M124.802 31.7534H120.874C120.753 31.7538 120.637 31.8023 120.551 31.8882C120.465 31.9742 120.417 32.0905 120.417 32.2119V36.1394C120.418 36.2605 120.466 36.3767 120.551 36.4624C120.637 36.548 120.753 36.5961 120.874 36.5962H124.802C124.923 36.5962 125.039 36.5482 125.125 36.4625C125.211 36.3769 125.26 36.2607 125.26 36.1394V32.2119C125.26 32.0904 125.212 31.9739 125.126 31.888C125.04 31.8021 124.923 31.7537 124.802 31.7534Z" fill="#ED2590"/>
<path d="M124.802 38.4462H120.874C120.753 38.4466 120.637 38.4951 120.551 38.581C120.465 38.667 120.417 38.7834 120.417 38.9047V42.8322C120.418 42.9533 120.466 43.0695 120.551 43.1552C120.637 43.2408 120.753 43.2889 120.874 43.289H124.802C124.923 43.289 125.039 43.241 125.125 43.1553C125.211 43.0697 125.26 42.9535 125.26 42.8322V38.9047C125.26 38.7832 125.212 38.6668 125.126 38.5809C125.04 38.4949 124.923 38.4465 124.802 38.4462Z" fill="#ED2590"/>
<path d="M124.802 45.139H120.874C120.753 45.1394 120.637 45.1879 120.551 45.2739C120.465 45.3598 120.417 45.4762 120.417 45.5975V49.5233C120.417 49.5834 120.429 49.6429 120.452 49.6985C120.475 49.7541 120.508 49.8047 120.551 49.8472C120.593 49.8898 120.644 49.9236 120.699 49.9467C120.755 49.9698 120.814 49.9817 120.874 49.9818H124.802C124.923 49.9817 125.04 49.9334 125.126 49.8474C125.212 49.7615 125.26 49.6449 125.26 49.5233V45.5975C125.26 45.476 125.211 45.3596 125.126 45.2737C125.04 45.1878 124.923 45.1393 124.802 45.139Z" fill="#E6E6E6"/>
<path d="M124.802 51.8318H120.874C120.753 51.8322 120.637 51.8807 120.551 51.9667C120.465 52.0526 120.417 52.169 120.417 52.2903V56.2161C120.417 56.2762 120.429 56.3358 120.452 56.3914C120.475 56.4469 120.508 56.4975 120.551 56.5401C120.593 56.5827 120.644 56.6165 120.699 56.6396C120.755 56.6626 120.814 56.6746 120.874 56.6746H124.802C124.923 56.6746 125.04 56.6262 125.126 56.5403C125.212 56.4543 125.26 56.3377 125.26 56.2161V52.2903C125.26 52.1688 125.211 52.0524 125.126 51.9665C125.04 51.8806 124.923 51.8322 124.802 51.8318Z" fill="white"/>
<path d="M124.802 58.5247H120.874C120.814 58.5247 120.755 58.5366 120.699 58.5597C120.644 58.5828 120.593 58.6166 120.551 58.6592C120.508 58.7018 120.475 58.7523 120.452 58.8079C120.429 58.8635 120.417 58.9231 120.417 58.9832V62.9089C120.417 62.9691 120.429 63.0286 120.452 63.0842C120.475 63.1398 120.508 63.1903 120.551 63.2329C120.593 63.2755 120.644 63.3093 120.699 63.3324C120.755 63.3555 120.814 63.3674 120.874 63.3675H124.802C124.923 63.3674 125.04 63.3191 125.126 63.2331C125.212 63.1471 125.26 63.0305 125.26 62.9089V58.9832C125.26 58.8616 125.212 58.745 125.126 58.659C125.04 58.573 124.923 58.5247 124.802 58.5247Z" fill="#ED2590"/>
<path d="M133.048 31.7534H129.121C129 31.7538 128.883 31.8023 128.798 31.8882C128.712 31.9742 128.664 32.0905 128.664 32.2119V36.1394C128.664 36.2605 128.712 36.3767 128.798 36.4624C128.884 36.548 129 36.5961 129.121 36.5962H133.048C133.17 36.5962 133.286 36.5482 133.372 36.4625C133.458 36.3769 133.506 36.2607 133.507 36.1394V32.2119C133.507 32.0904 133.458 31.9739 133.372 31.888C133.286 31.8021 133.17 31.7537 133.048 31.7534Z" fill="#ED2590"/>
<path d="M133.048 38.4462H129.121C129 38.4466 128.883 38.4951 128.798 38.581C128.712 38.667 128.664 38.7834 128.664 38.9047V42.8322C128.664 42.9533 128.712 43.0695 128.798 43.1552C128.884 43.2408 129 43.2889 129.121 43.289H133.048C133.17 43.289 133.286 43.241 133.372 43.1553C133.458 43.0697 133.506 42.9535 133.507 42.8322V38.9047C133.507 38.7832 133.458 38.6668 133.372 38.5809C133.286 38.4949 133.17 38.4465 133.048 38.4462Z" fill="#ED2590"/>
<path d="M133.048 45.139H129.121C129 45.1394 128.883 45.1879 128.798 45.2739C128.712 45.3598 128.664 45.4762 128.664 45.5975V49.5233C128.664 49.5834 128.676 49.6429 128.698 49.6985C128.721 49.7541 128.755 49.8047 128.797 49.8472C128.84 49.8898 128.89 49.9236 128.946 49.9467C129.001 49.9698 129.061 49.9817 129.121 49.9818H133.048C133.17 49.9817 133.287 49.9334 133.373 49.8474C133.459 49.7615 133.507 49.6449 133.507 49.5233V45.5975C133.507 45.476 133.458 45.3596 133.372 45.2737C133.286 45.1878 133.17 45.1393 133.048 45.139Z" fill="#E6E6E6"/>
<path d="M133.048 51.8318H129.121C129 51.8322 128.883 51.8807 128.798 51.9667C128.712 52.0526 128.664 52.169 128.664 52.2903V56.2161C128.664 56.2762 128.676 56.3358 128.698 56.3914C128.721 56.4469 128.755 56.4975 128.797 56.5401C128.84 56.5827 128.89 56.6165 128.946 56.6396C129.001 56.6626 129.061 56.6746 129.121 56.6746H133.048C133.17 56.6746 133.287 56.6262 133.373 56.5403C133.459 56.4543 133.507 56.3377 133.507 56.2161V52.2903C133.507 52.1688 133.458 52.0524 133.372 51.9665C133.286 51.8806 133.17 51.8321 133.048 51.8318Z" fill="#ED2590"/>
<path d="M133.048 58.5247H129.121C129.061 58.5247 129.001 58.5366 128.946 58.5597C128.89 58.5828 128.84 58.6166 128.797 58.6592C128.755 58.7018 128.721 58.7523 128.698 58.8079C128.676 58.8635 128.664 58.9231 128.664 58.9832V62.9089C128.664 62.9691 128.676 63.0286 128.698 63.0842C128.721 63.1398 128.755 63.1903 128.797 63.2329C128.84 63.2755 128.89 63.3093 128.946 63.3324C129.001 63.3555 129.061 63.3674 129.121 63.3675H133.048C133.17 63.3674 133.287 63.3191 133.373 63.2331C133.459 63.1471 133.507 63.0305 133.507 62.9089V58.9832C133.507 58.8616 133.459 58.745 133.373 58.659C133.287 58.573 133.17 58.5247 133.048 58.5247Z" fill="#ED2590"/>
<path d="M141.295 31.7534H137.367C137.246 31.7538 137.13 31.8023 137.044 31.8882C136.959 31.9742 136.911 32.0905 136.911 32.2119V36.1394C136.911 36.2605 136.959 36.3767 137.044 36.4624C137.13 36.548 137.246 36.5961 137.367 36.5962H141.295C141.416 36.5962 141.533 36.5482 141.619 36.4625C141.705 36.3769 141.753 36.2607 141.753 36.1394V32.2119C141.753 32.0904 141.705 31.9739 141.619 31.888C141.533 31.8021 141.416 31.7537 141.295 31.7534Z" fill="#E6E6E6"/>
<path d="M141.295 38.4462H137.367C137.246 38.4466 137.13 38.4951 137.044 38.581C136.959 38.667 136.911 38.7834 136.911 38.9047V42.8322C136.911 42.9533 136.959 43.0695 137.044 43.1552C137.13 43.2408 137.246 43.2889 137.367 43.289H141.295C141.416 43.289 141.533 43.241 141.619 43.1553C141.705 43.0697 141.753 42.9535 141.753 42.8322V38.9047C141.753 38.7832 141.705 38.6668 141.619 38.5809C141.533 38.4949 141.416 38.4465 141.295 38.4462Z" fill="#ED2590"/>
<path d="M141.295 45.139H137.367C137.246 45.1394 137.13 45.1879 137.044 45.2739C136.959 45.3598 136.911 45.4762 136.911 45.5975V49.5233C136.91 49.5834 136.922 49.6429 136.945 49.6985C136.968 49.7541 137.002 49.8047 137.044 49.8472C137.086 49.8898 137.137 49.9236 137.192 49.9467C137.248 49.9698 137.307 49.9817 137.367 49.9818H141.295C141.417 49.9817 141.533 49.9334 141.619 49.8474C141.705 49.7615 141.753 49.6449 141.753 49.5233V45.5975C141.753 45.476 141.705 45.3596 141.619 45.2737C141.533 45.1878 141.416 45.1393 141.295 45.139Z" fill="#ED2590"/>
<path d="M141.295 51.8318H137.367C137.246 51.8322 137.13 51.8807 137.044 51.9667C136.959 52.0526 136.911 52.169 136.911 52.2903V56.2161C136.91 56.2762 136.922 56.3358 136.945 56.3914C136.968 56.4469 137.002 56.4975 137.044 56.5401C137.086 56.5827 137.137 56.6165 137.192 56.6396C137.248 56.6626 137.307 56.6746 137.367 56.6746H141.295C141.417 56.6746 141.533 56.6262 141.619 56.5403C141.705 56.4543 141.753 56.3377 141.753 56.2161V52.2903C141.753 52.1688 141.705 52.0524 141.619 51.9665C141.533 51.8806 141.416 51.8321 141.295 51.8318Z" fill="#ED2590"/>
<path d="M141.295 58.5247H137.367C137.307 58.5247 137.248 58.5366 137.192 58.5597C137.137 58.5828 137.086 58.6166 137.044 58.6592C137.002 58.7018 136.968 58.7523 136.945 58.8079C136.922 58.8635 136.91 58.9231 136.911 58.9832V62.9089C136.91 62.9691 136.922 63.0286 136.945 63.0842C136.968 63.1398 137.002 63.1903 137.044 63.2329C137.086 63.2755 137.137 63.3093 137.192 63.3324C137.248 63.3555 137.307 63.3674 137.367 63.3675H141.295C141.417 63.3674 141.533 63.3191 141.619 63.2331C141.705 63.1471 141.753 63.0305 141.753 62.9089V58.9832C141.753 58.8616 141.705 58.745 141.619 58.659C141.533 58.573 141.417 58.5247 141.295 58.5247Z" fill="#E6E6E6"/>
<path d="M149.542 31.7534H145.614C145.493 31.7538 145.376 31.8023 145.291 31.8882C145.205 31.9742 145.157 32.0905 145.157 32.2119V36.1394C145.157 36.2605 145.205 36.3767 145.291 36.4624C145.377 36.548 145.493 36.5961 145.614 36.5962H149.542C149.663 36.5962 149.779 36.5482 149.865 36.4625C149.951 36.3769 150 36.2607 150 36.1394V32.2119C150 32.0904 149.951 31.9739 149.865 31.888C149.779 31.8021 149.663 31.7537 149.542 31.7534Z" fill="#E6E6E6"/>
<path d="M149.542 38.4462H145.614C145.493 38.4466 145.376 38.4951 145.291 38.581C145.205 38.667 145.157 38.7834 145.157 38.9047V42.8322C145.157 42.9533 145.205 43.0695 145.291 43.1552C145.377 43.2408 145.493 43.2889 145.614 43.289H149.542C149.663 43.289 149.779 43.241 149.865 43.1553C149.951 43.0697 150 42.9535 150 42.8322V38.9047C150 38.7832 149.951 38.6668 149.865 38.5809C149.779 38.4949 149.663 38.4465 149.542 38.4462Z" fill="#E6E6E6"/>
<path d="M149.542 45.139H145.614C145.493 45.1394 145.376 45.1879 145.291 45.2739C145.205 45.3598 145.157 45.4762 145.157 45.5975V49.5233C145.157 49.5834 145.169 49.6429 145.192 49.6985C145.215 49.7541 145.248 49.8047 145.291 49.8472C145.333 49.8898 145.383 49.9236 145.439 49.9467C145.494 49.9698 145.554 49.9817 145.614 49.9818H149.542C149.663 49.9817 149.78 49.9334 149.866 49.8474C149.952 49.7615 150 49.6449 150 49.5233V45.5975C150 45.476 149.951 45.3596 149.865 45.2737C149.779 45.1878 149.663 45.1393 149.542 45.139Z" fill="#ED2590"/>
<path d="M149.542 51.8318H145.614C145.493 51.8322 145.376 51.8807 145.291 51.9667C145.205 52.0526 145.157 52.169 145.157 52.2903V56.2161C145.157 56.2762 145.169 56.3358 145.192 56.3914C145.215 56.4469 145.248 56.4975 145.291 56.5401C145.333 56.5827 145.383 56.6165 145.439 56.6396C145.494 56.6626 145.554 56.6746 145.614 56.6746H149.542C149.663 56.6746 149.78 56.6262 149.866 56.5403C149.952 56.4543 150 56.3377 150 56.2161V52.2903C150 52.1688 149.951 52.0524 149.865 51.9665C149.779 51.8806 149.663 51.8321 149.542 51.8318Z" fill="#E6E6E6"/>
<path d="M149.542 58.5247H145.614C145.554 58.5247 145.494 58.5366 145.439 58.5597C145.383 58.5828 145.333 58.6166 145.291 58.6592C145.248 58.7018 145.215 58.7523 145.192 58.8079C145.169 58.8635 145.157 58.9231 145.157 58.9832V62.9089C145.157 62.9691 145.169 63.0286 145.192 63.0842C145.215 63.1398 145.248 63.1903 145.291 63.2329C145.333 63.2755 145.383 63.3093 145.439 63.3324C145.494 63.3555 145.554 63.3674 145.614 63.3675H149.542C149.663 63.3674 149.78 63.3191 149.866 63.2331C149.952 63.1471 150 63.0305 150 62.9089V58.9832C150 58.8616 149.952 58.745 149.866 58.659C149.78 58.573 149.663 58.5247 149.542 58.5247Z" fill="#E6E6E6"/>
<path d="M59.2734 116.406H59.1641L59.2575 116.394L59.2734 116.406Z" fill="#2F2E41"/>
<path d="M49.8768 43.2176C56.5314 43.2176 61.926 37.823 61.926 31.1684C61.926 24.5139 56.5314 19.1193 49.8768 19.1193C43.2222 19.1193 37.8276 24.5139 37.8276 31.1684C37.8276 37.823 43.2222 43.2176 49.8768 43.2176Z" fill="#FFB6B6"/>
<path d="M60.4287 22.3341C60.4287 22.3341 63.5801 16.3096 56.6469 15.7619C56.6469 15.7619 50.7362 10.4002 44.7116 14.7817C44.7116 14.7817 41.4255 14.7817 39.6285 18.5003C39.6285 18.5003 37.044 17.5201 36.476 20.1434C36.476 20.1434 34.5848 25.6203 36.476 30.5495C38.3672 35.4787 38.9954 36.0264 38.9954 36.0264C38.9954 36.0264 35.8878 25.692 43.4519 25.1443C51.0161 24.5966 59.4806 19.8695 60.111 25.8941C60.7414 31.9187 61.69 33.4031 61.69 33.4031C61.69 33.4031 67.6773 24.7988 60.4287 22.3341Z" fill="#2F2E41"/>
<path d="M81.0454 60.8632L81.0066 61.0677L80.571 63.3674L77.5606 79.275L77.3824 80.2115L77.0086 82.192L76.4971 84.8938L75.3631 90.8812L75.0386 92.5972L74.9169 93.2409L74.8746 93.4666L74.5378 95.2426L74.4355 95.7787L73.6136 101.868L72.8959 107.175L75.2979 109.577L73.8658 111.009L72.9259 116.393L72.9276 116.406H34.5642C33.0123 115.4 31.4827 114.364 29.9754 113.296L30.2911 110.933C30.2911 110.933 31.3774 106.713 30.9206 106.209C30.4657 105.704 29.4674 104.803 29.4674 104.803L30.7249 101.868L30.8995 101.461L30.6067 95.3889L30.5997 95.2426L30.5027 93.2409L30.4903 92.9834L30.4709 92.5972L30.0988 84.8938L30.0918 84.7668L29.9789 82.4318L29.8731 80.2115L29.8272 79.275L29.374 69.9051L29.0671 63.542L28.7991 58.0026L29.8766 57.6376L41.4017 53.7206L46.1757 47.5145L56.1118 47.5886L60.9758 47.6256L69.0918 55.1526L70.9383 56.0344L70.9524 56.0415L72.2769 56.6746L75.6347 58.2777L79.1849 59.9743L81.0066 60.8437L81.0454 60.8632Z" fill="#CACACA"/>
<path d="M47.4596 98.3291C46.7315 98.6112 45.9504 98.7302 45.1713 98.6777C44.3923 98.6253 43.6341 98.4026 42.9504 98.0255C42.2667 97.6483 41.674 97.1259 41.214 96.4949C40.754 95.8639 40.438 95.1397 40.2882 94.3734L21.4956 91.7072L28.0284 84.3174L44.8726 87.9822C46.1767 87.8158 47.4965 88.1336 48.582 88.8753C49.6674 89.6171 50.4431 90.7312 50.762 92.0066C51.0808 93.282 50.9208 94.63 50.3122 95.7953C49.7035 96.9606 48.6886 97.8622 47.4596 98.3291V98.3291Z" fill="#FFB6B6"/>
<path d="M39.0808 84.8938C38.7327 84.4525 38.2399 84.1483 37.6894 84.035L29.979 82.4318L29.1871 82.2678C28.7269 82.1718 28.2922 81.9797 27.9114 81.704C27.5306 81.4284 27.2123 81.0754 26.9773 80.6682C26.7336 80.2408 26.5861 79.7654 26.5452 79.275C26.5085 78.8292 26.5619 78.3806 26.7022 77.9559L29.374 69.9051L31.1076 64.6813C31.3177 64.0513 31.4417 63.3958 31.4762 62.7326C31.5728 60.8972 31.005 59.0884 29.8766 57.6376C28.8847 56.3623 27.5088 55.44 25.9524 55.0068C24.3959 54.5737 22.7414 54.6526 21.2333 55.232C21.1892 55.2479 21.1434 55.2655 21.0993 55.2832C20.0177 55.715 19.0514 56.3925 18.2767 57.2621C17.502 58.1316 16.9402 59.1695 16.6356 60.2935L14.7521 67.1451L10.8669 81.2697C10.478 82.6848 10.3994 84.1673 10.6366 85.6156C10.8737 87.064 11.421 88.444 12.241 89.6612C13.0609 90.8784 14.1342 91.9041 15.3873 92.668C16.6405 93.432 18.0438 93.9161 19.5014 94.0874L30.6068 95.3889L35.7459 95.9921C36.3401 96.0635 36.9395 95.9084 37.4245 95.5577C37.9095 95.207 38.2446 94.6865 38.363 94.0998C38.3714 94.0678 38.3778 94.0354 38.3824 94.0028L38.5059 93.2409L39.5517 86.825L39.5623 86.7597C39.6168 86.4323 39.6021 86.0971 39.5192 85.7758C39.4362 85.4544 39.2869 85.154 39.0808 84.8938Z" fill="#CACACA"/>
<path d="M59.4299 98.5347C60.1906 98.7113 60.9806 98.719 61.7445 98.5572C62.5084 98.3954 63.2276 98.0681 63.8513 97.5983C64.475 97.1285 64.9881 96.5277 65.3545 95.8381C65.7209 95.1486 65.9316 94.3871 65.9719 93.6073L84.2007 88.3176L76.6911 81.9229L60.532 87.9264C59.2174 87.9456 57.9556 88.4463 56.9856 89.3337C56.0156 90.2211 55.4048 91.4335 55.269 92.7411C55.1331 94.0487 55.4817 95.3608 56.2486 96.4286C57.0155 97.4964 58.1474 98.2458 59.4299 98.5348V98.5347Z" fill="#FFB6B6"/>
<path d="M93.2513 76.4851L84.5815 56.5318C83.8724 54.8937 82.6059 53.5597 81.0067 52.7665C80.5124 52.5232 79.9932 52.334 79.4583 52.2022C79.3754 52.181 79.2925 52.1616 79.2096 52.1457C78.0752 51.8982 76.8986 51.92 75.7741 52.2093C74.7463 52.4733 73.7856 52.9511 72.9548 53.6114C72.124 54.2717 71.4417 55.0998 70.9525 56.0415C70.9471 56.0494 70.9424 56.0576 70.9384 56.0662C70.3919 57.1234 70.1013 58.2942 70.0899 59.4842C70.0786 60.6743 70.3468 61.8503 70.8731 62.9178L70.9807 63.1329L77.1074 75.4375C77.3166 75.8582 77.4345 76.3185 77.4533 76.788C77.4721 77.2575 77.3915 77.7257 77.2166 78.1619C77.0417 78.598 76.7766 78.9923 76.4387 79.3188C76.1007 79.6453 75.6976 79.8966 75.2556 80.0563L74.8253 80.2115L67.0867 83.0068C66.506 83.214 66.0284 83.6385 65.7544 84.1908C65.4803 84.7431 65.4313 85.3801 65.6176 85.9679L65.637 86.0296L67.8062 92.9711C67.8168 93.0028 67.8274 93.0346 67.8397 93.0663C67.8588 93.1262 67.8824 93.1846 67.9103 93.2409C68.1408 93.758 68.5483 94.1758 69.0594 94.4192C69.5705 94.6627 70.1517 94.7157 70.6985 94.5689L74.8747 93.4667L75.7265 93.2409L86.5108 90.3927C87.9298 90.0178 89.2511 89.3406 90.384 88.4075C91.517 87.4745 92.435 86.3077 93.0751 84.9869C93.7152 83.6661 94.0624 82.2226 94.0928 80.7552C94.1232 79.2878 93.8361 77.8312 93.2513 76.485L93.2513 76.4851Z" fill="#CACACA"/>
<path d="M7.91821 93.2409C10.4173 96.2891 13.1125 99.171 15.9866 101.868H95.6956C96.4635 101.87 97.1997 102.175 97.7425 102.719C98.2854 103.262 98.5907 103.998 98.5914 104.766L98.706 124.964C103.61 122.711 108.202 119.835 112.369 116.406C113.525 115.455 114.647 114.463 115.732 113.43C116.442 112.757 117.136 112.067 117.813 111.36C122.886 106.075 126.993 99.9431 129.95 93.2409H7.91821Z" fill="#3F3D56"/>
<path d="M117.813 111.36C117.137 112.067 116.444 112.757 115.732 113.43H98.7642V111.36H117.813Z" fill="white"/>
<path d="M80.8866 45.139C80.8028 44.9843 80.6787 44.8551 80.5275 44.7651C80.3763 44.675 80.2037 44.6275 80.0277 44.6276H22.2102C21.951 44.6282 21.7026 44.7316 21.5194 44.9151C21.3363 45.0986 21.2334 45.3471 21.2332 45.6063V80.2115H81.0065V45.6063C81.0074 45.4428 80.9661 45.2819 80.8866 45.139Z" fill="#3F3D56"/>
<path d="M21.1809 79.2746V83.5449C21.1809 83.7219 21.2158 83.8972 21.2835 84.0608C21.3513 84.2243 21.4506 84.373 21.5757 84.4981C21.7009 84.6233 21.8495 84.7226 22.0131 84.7904C22.1766 84.8581 22.3519 84.893 22.529 84.893H44.5909V93.3205H44.2978C44.2748 93.3205 44.252 93.3251 44.2308 93.3339C44.2095 93.3427 44.1902 93.3556 44.174 93.3718C44.1577 93.3881 44.1448 93.4074 44.136 93.4286C44.1272 93.4499 44.1227 93.4727 44.1227 93.4957V94.0818C44.1227 94.1048 44.1272 94.1276 44.136 94.1489C44.1448 94.1701 44.1577 94.1894 44.174 94.2057C44.1902 94.2219 44.2095 94.2348 44.2308 94.2436C44.252 94.2524 44.2748 94.257 44.2978 94.257H57.9936C58.0166 94.257 58.0393 94.2524 58.0606 94.2436C58.0818 94.2348 58.1011 94.2219 58.1174 94.2057C58.1337 94.1894 58.1466 94.1701 58.1554 94.1489C58.1642 94.1276 58.1687 94.1048 58.1687 94.0818V93.4957C58.1687 93.4727 58.1642 93.4499 58.1554 93.4286C58.1466 93.4074 58.1337 93.3881 58.1174 93.3718C58.1011 93.3556 58.0818 93.3427 58.0606 93.3339C58.0393 93.3251 58.0166 93.3205 57.9936 93.3205H57.7005V84.893H79.7624C79.9394 84.893 80.1147 84.8581 80.2783 84.7904C80.4418 84.7226 80.5905 84.6233 80.7156 84.4981C80.8408 84.373 80.9401 84.2243 81.0079 84.0608C81.0756 83.8972 81.1105 83.7219 81.1105 83.5449V79.2746H21.1809Z" fill="#3F3D56"/>
<path d="M64.4888 30.51H63.607C63.607 23.8437 57.0094 19.4753 50.3536 19.4717C49.3855 19.4689 48.4196 19.5628 47.4702 19.7521C46.4014 19.9655 45.2921 20.2213 44.2022 20.5546C39.9044 21.872 35.9187 24.4186 35.9187 30.51C35.9177 31.693 36.0683 32.8713 36.3666 34.0161L35.513 34.2383C35.1964 33.0208 35.0364 31.768 35.0369 30.51C35.0369 25.1875 37.222 21.5316 40.996 19.3518C42.9801 18.2055 45.4015 17.4665 48.1756 17.1068C49.33 16.9532 50.4971 16.9177 51.6587 17.0009C59.3127 17.5512 64.4888 23.4204 64.4888 30.51Z" fill="#ED2590"/>
<path d="M65.958 30.9985L65.6106 28.4308C65.5249 27.7823 65.2125 27.1851 64.7288 26.7448C64.4183 26.4577 64.0465 26.2451 63.6417 26.1229C63.2369 26.0007 62.8095 25.9721 62.392 26.0393L61.84 26.1152C61.689 26.1351 61.5434 26.1847 61.4117 26.2613C61.28 26.3379 61.1648 26.4399 61.0729 26.5614C60.9801 26.6824 60.9123 26.8206 60.8732 26.968C60.8342 27.1155 60.8247 27.2691 60.8454 27.4202L61.6478 33.3353C61.6809 33.5764 61.7889 33.801 61.9567 33.9773C62.1244 34.1536 62.3434 34.2726 62.5825 34.3176C62.6533 34.3318 62.7254 34.3389 62.7977 34.3388C62.8496 34.3388 62.9014 34.3352 62.9529 34.3282L63.5701 34.2453C63.9465 34.1954 64.3086 34.069 64.6343 33.874C64.9601 33.679 65.2425 33.4195 65.4642 33.1113C65.5118 33.0443 65.5577 32.9755 65.6 32.905C65.9306 32.3279 66.0567 31.6562 65.958 30.9985Z" fill="#ED2590"/>
<path d="M61.4838 26.2227C61.3219 26.3014 61.181 26.4175 61.0729 26.5613C60.9801 26.6824 60.9123 26.8206 60.8732 26.968C60.8342 27.1154 60.8247 27.2691 60.8454 27.4202L61.6478 33.3353C61.6809 33.5764 61.7889 33.8009 61.9567 33.9772C62.1244 34.1535 62.3434 34.2726 62.5825 34.3176L61.4838 26.2227Z" fill="white"/>
<path d="M65.958 30.9985L65.6106 28.4307C65.5249 27.7823 65.2125 27.185 64.7288 26.7448L65.5277 32.6299C65.5396 32.7243 65.564 32.8168 65.6 32.905C65.9305 32.3279 66.0567 31.6562 65.958 30.9985Z" fill="#3F3D56"/>
<path d="M63.2121 32.8486C63.4534 32.8159 63.5747 32.2417 63.4831 31.5661C63.3914 30.8905 63.1215 30.3693 62.8802 30.402C62.639 30.4348 62.5177 31.009 62.6093 31.6846C62.701 32.3602 62.9709 32.8814 63.2121 32.8486Z" fill="#3F3D56"/>
<path d="M62.6829 29.6742C62.9242 29.6415 63.0455 29.0673 62.9538 28.3916C62.8622 27.716 62.5923 27.1949 62.351 27.2276C62.1097 27.2603 61.9884 27.8346 62.08 28.5102C62.1717 29.1858 62.4416 29.7069 62.6829 29.6742Z" fill="#3F3D56"/>
<path d="M66.0337 30.9087C66.275 30.876 66.3963 30.3018 66.3046 29.6261C66.213 28.9505 65.9431 28.4294 65.7018 28.4621C65.4605 28.4948 65.3392 29.0691 65.4308 29.7447C65.5225 30.4203 65.7924 30.9414 66.0337 30.9087Z" fill="#3F3D56"/>
<path d="M50.3537 19.4717C49.3856 19.4689 48.4197 19.5628 47.4702 19.7521C46.4015 19.9655 45.2922 20.2213 44.2023 20.5546C42.5004 20.4717 41.2483 20.0308 40.9961 19.3518C42.9801 18.2055 45.4015 17.4665 48.1757 17.1068C49.3301 16.9532 50.4972 16.9177 51.6588 17.0009C51.7817 17.073 51.8881 17.1703 51.9707 17.2864C52.0534 17.4026 52.1106 17.5348 52.1385 17.6746C52.2214 18.2884 51.5212 18.9409 50.3537 19.4717Z" fill="#3F3D56"/>
<path d="M39.095 36.6297L37.737 30.9845C37.6886 30.7808 37.5811 30.596 37.4279 30.4532C37.2748 30.3104 37.0829 30.2161 36.8764 30.182C36.818 30.1729 36.7591 30.1682 36.7 30.1679C36.6168 30.1682 36.534 30.1783 36.4531 30.1979L35.9276 30.3249C35.2509 30.4885 34.6668 30.9139 34.3034 31.5077C33.9401 32.1016 33.8271 32.8153 33.9894 33.4923L34.5978 36.0248C34.7367 36.621 35.0676 37.1551 35.5396 37.545C35.6161 37.6068 35.6962 37.6639 35.7794 37.7161C36.075 37.9014 36.4048 38.0255 36.7492 38.0813C37.0936 38.137 37.4457 38.1232 37.7846 38.0406L38.3084 37.9136C38.4469 37.8813 38.5772 37.8206 38.6911 37.7355C38.8605 37.612 38.9893 37.4409 39.0612 37.244C39.1331 37.0471 39.1449 36.8333 39.095 36.6297Z" fill="#ED2590"/>
<path d="M36.248 35.5793C36.4848 35.5224 36.5474 34.9388 36.3879 34.2759C36.2283 33.613 35.9071 33.1219 35.6704 33.1788C35.4336 33.2358 35.371 33.8194 35.5305 34.4822C35.69 35.1451 36.0113 35.6363 36.248 35.5793Z" fill="#3F3D56"/>
<path d="M34.4844 36.1084C34.7211 36.0514 34.7837 35.4679 34.6242 34.805C34.4647 34.1421 34.1434 33.6509 33.9067 33.7079C33.6699 33.7649 33.6073 34.3484 33.7669 35.0113C33.9264 35.6742 34.2476 36.1654 34.4844 36.1084Z" fill="#3F3D56"/>
<path d="M39.1813 36.6085L37.8233 30.9633C37.7704 30.7429 37.6537 30.543 37.4877 30.3887C37.3218 30.2344 37.114 30.1324 36.8904 30.0956L38.7439 37.806C38.927 37.6719 39.0662 37.4867 39.144 37.2735C39.2219 37.0604 39.2348 36.829 39.1813 36.6085Z" fill="white"/>
<path d="M34.2962 32.3742C34.2587 32.2172 34.1884 32.0699 34.0899 31.9421C33.899 32.4364 33.8639 32.9774 33.9893 33.4923L34.5978 36.0248C34.7367 36.621 35.0676 37.1551 35.5395 37.545L34.2962 32.3742Z" fill="#3F3D56"/>
<path d="M45.7329 73.6341H48.185V65.2171H54.6772V73.6341H57.1294V56.8707H54.6772V63.0715H48.185V56.8707H45.7329V73.6341Z" fill="#ED2590"/>
<path d="M45.7328 73.6341H45.0322V74.3414H45.7328V73.6341ZM48.1849 73.6341V74.3414H48.8855V73.6341H48.1849ZM48.1849 65.2171V64.5097H47.4843V65.2171H48.1849ZM54.6771 65.2171H55.3778V64.5097H54.6771V65.2171ZM54.6771 73.6341H53.9765V74.3414H54.6771V73.6341ZM57.1293 73.6341V74.3414H57.8299V73.6341H57.1293ZM57.1293 56.8707H57.8299V56.1634H57.1293V56.8707ZM54.6771 56.8707V56.1634H53.9765V56.8707H54.6771ZM54.6771 63.0715V63.7788H55.3778V63.0715H54.6771ZM48.1849 63.0715H47.4843V63.7788H48.1849V63.0715ZM48.1849 56.8707H48.8855V56.1634H48.1849V56.8707ZM45.7328 56.8707V56.1634H45.0322V56.8707H45.7328ZM45.7328 74.3414H48.1849V72.9268H45.7328V74.3414ZM48.8855 73.6341V65.2171H47.4843V73.6341H48.8855ZM48.1849 65.9244H54.6771V64.5097H48.1849V65.9244ZM53.9765 65.2171V73.6341H55.3778V65.2171H53.9765ZM54.6771 74.3414H57.1293V72.9268H54.6771V74.3414ZM57.8299 73.6341V56.8707H56.4287V73.6341H57.8299ZM57.1293 56.1634H54.6771V57.578H57.1293V56.1634ZM53.9765 56.8707V63.0715H55.3778V56.8707H53.9765ZM54.6771 62.3642H48.1849V63.7788H54.6771V62.3642ZM48.8855 63.0715V56.8707H47.4843V63.0715H48.8855ZM48.1849 56.1634H45.7328V57.578H48.1849V56.1634ZM45.0322 56.8707V73.6341H46.4334V56.8707H45.0322Z" fill="#ED2590"/>
</g>
<defs>
<clipPath id="clip0_19426_3297">
<rect width="150" height="130.652" fill="white"/>
</clipPath>
</defs>
</svg>
